<?xml version="1.0" encoding="UTF-8"?>
<svg width="1200pt" height="1200pt" version="1.1" viewBox="0 0 1200 1200" xmlns="http://www.w3.org/2000/svg">
 <g>
  <path d="m399.98 1074.9h-24.996c-66.281-0.078125-129.82-26.438-176.69-73.305-46.867-46.867-73.23-110.41-73.305-176.69v-25h49.996v25c0.066406 53.023 21.16 103.85 58.652 141.34 37.488 37.492 88.32 58.586 141.34 58.648h25z"/>
  <path d="m174.99 850.01h-24.996v-49.996h24.711c0.46875-6.0586 0.62109-12.133 0.45312-18.207v-6.7969-99.992-6.7969c0.16797-6.0703 0.015625-12.148-0.45312-18.203h-99.711c-6.6289 0-12.988 2.6328-17.676 7.3203s-7.3203 11.047-7.3203 17.68v99.996h-50v-99.996c0.023438-19.887 7.9297-38.949 21.992-53.008 14.059-14.062 33.121-21.969 53.004-21.992h99.996c13.207-0.65234 26.098 4.1406 35.668 13.262 14.703 14.828 14.539 35.418 14.375 55.312v6.4258 99.996 6.3828c0 19.934 0.32812 40.484-14.375 55.352-9.5781 9.1055-22.465 13.898-35.668 13.262z"/>
  <path d="m525.02 1200h-100.04v-50h100.04c6.625-0.007812 12.98-2.6484 17.664-7.332 4.6875-4.6875 7.3242-11.039 7.3359-17.664v-99.504c-6.0547-0.48438-12.133-0.64844-18.203-0.49219h-113.63c-6.0742-0.15625-12.148 0.007813-18.207 0.49219v24.711h-49.914v-25c-0.64844-13.195 4.1641-26.078 13.301-35.625 14.828-14.703 35.379-14.539 55.312-14.414h112.6c19.934 0 40.484-0.28906 55.312 14.414h-0.003906c9.1406 9.5469 13.949 22.43 13.305 35.625v99.996c-0.078126 19.828-7.9922 38.82-22.02 52.832-14.027 14.012-33.027 21.906-52.855 21.961z"/>
  <path d="m500.02 1200h-75.039c-112.67-0.12891-220.69-44.949-300.36-124.62s-124.49-187.69-124.62-300.36v-74.875h50v74.996c0.10547 99.422 39.648 194.74 109.95 265.04 70.301 70.301 165.62 109.84 265.04 109.95h75.039z"/>
  <path d="m1025 625.02h-499.98v-50c0.054687-46.418 18.523-90.918 51.355-123.73 32.832-32.816 77.344-51.266 123.76-51.301h150c46.398 0.066406 90.875 18.531 123.68 51.344 32.805 32.812 51.258 77.297 51.312 123.69zm-449.99-50h399.99c-0.03125-33.141-13.211-64.914-36.648-88.348-23.434-23.434-55.207-36.613-88.348-36.645h-149.87c-33.164 0-64.969 13.164-88.43 36.602-23.461 23.438-36.656 55.23-36.691 88.391z"/>
  <path d="m775.02 374.99c-33.152 0-64.945-13.172-88.387-36.613s-36.609-55.234-36.609-88.383c0-33.152 13.168-64.945 36.609-88.387 23.441-23.441 55.234-36.609 88.387-36.609 33.148 0 64.941 13.168 88.383 36.609 23.441 23.441 36.613 55.234 36.613 88.387-0.035157 33.141-13.215 64.914-36.648 88.348-23.434 23.434-55.207 36.613-88.348 36.648zm0-199.99v-0.003906c-19.891 0-38.969 7.9023-53.031 21.969-14.066 14.062-21.969 33.141-21.969 53.031 0 19.891 7.9023 38.965 21.969 53.031 14.062 14.062 33.141 21.965 53.031 21.965s38.965-7.9023 53.031-21.965c14.062-14.066 21.965-33.141 21.965-53.031-0.023438-19.883-7.9297-38.949-21.988-53.008-14.062-14.059-33.125-21.969-53.008-21.992z"/>
  <path d="m550.06 905.7v-180.84h50v69.312l78.004-69.312h446.94c6.625-0.011718 12.977-2.6484 17.664-7.3359 4.6836-4.6836 7.3242-11.035 7.332-17.664v-624.86c0-6.6289-2.6328-12.988-7.3203-17.676s-11.047-7.3203-17.676-7.3203h-700.14c-6.6289 0.007812-12.98 2.6484-17.668 7.332-4.6836 4.6875-7.3203 11.039-7.332 17.664v625.14c0.019531 6.625 2.6602 12.969 7.3438 17.652 4.6836 4.6836 11.031 7.3242 17.656 7.3477h75.039v50l-74.918-0.003906c-19.867-0.042969-38.91-7.9609-52.953-22.02-14.043-14.055-21.938-33.105-21.961-52.977v-625.14c0.023438-19.867 7.918-38.918 21.961-52.977 14.043-14.059 33.086-21.977 52.953-22.02h700.14c19.887 0.023438 38.949 7.9297 53.008 21.992 14.059 14.059 21.969 33.121 21.992 53.004v625.14c-0.023438 19.883-7.9336 38.945-21.992 53.008-14.059 14.059-33.121 21.969-53.008 21.988h-428.07z"/>
 </g>
</svg>
