<?xml version="1.0" encoding="utf-8"?>
<svg viewBox="0 0 500 500" width="500" height="500" xmlns="http://www.w3.org/2000/svg">
  <ellipse style="fill: rgb(216, 201, 0);" cx="188.583" cy="190.268" rx="131.207" ry="131.207"/>
  <path d="M 264.026 157.849 C 263.33 157.849 262.614 157.95 261.902 158.147 L 253.833 160.367 L 245.456 139.958 C 243.082 134.176 236.066 129.47 229.815 129.47 L 151.395 129.47 C 145.144 129.47 138.126 134.175 135.753 139.958 L 127.386 160.34 L 119.418 158.147 C 118.706 157.952 117.991 157.849 117.294 157.849 C 113.48 157.849 110.713 160.763 110.713 164.776 L 110.713 169.536 C 110.713 174.221 114.527 178.034 119.21 178.034 L 120.123 178.034 L 118.771 181.326 C 116.566 186.7 114.772 195.795 114.772 201.603 L 114.772 242.153 C 114.772 246.837 118.583 250.65 123.269 250.65 L 134.368 250.65 C 139.054 250.65 142.867 246.837 142.867 242.153 L 142.867 232.027 L 238.347 232.027 L 238.347 242.153 C 238.347 246.837 242.16 250.65 246.844 250.65 L 257.942 250.65 C 262.625 250.65 266.439 246.837 266.439 242.153 L 266.439 201.603 C 266.439 195.795 264.643 186.7 262.437 181.326 L 261.085 178.034 L 262.113 178.034 C 266.796 178.034 270.611 174.221 270.611 169.536 L 270.611 164.776 C 270.607 160.763 267.84 157.849 264.026 157.849 Z M 133.478 173.417 L 146.154 142.541 C 147.572 139.082 151.794 136.253 155.533 136.253 L 225.678 136.253 C 229.415 136.253 233.635 139.083 235.056 142.541 L 247.73 173.417 C 249.151 176.876 247.253 179.706 243.515 179.706 L 137.696 179.706 C 133.959 179.706 132.061 176.876 133.478 173.417 Z M 161.775 212.469 C 161.775 214.338 160.244 215.868 158.375 215.868 L 134.297 215.868 C 132.427 215.868 130.899 214.338 130.899 212.469 L 130.899 200.913 C 130.899 199.043 132.428 197.515 134.297 197.515 L 158.375 197.515 C 160.244 197.515 161.775 199.043 161.775 200.913 L 161.775 212.469 Z M 250.081 212.469 C 250.081 214.338 248.55 215.868 246.682 215.868 L 222.607 215.868 C 220.739 215.868 219.207 214.338 219.207 212.469 L 219.207 200.913 C 219.207 199.043 220.739 197.515 222.607 197.515 L 246.682 197.515 C 248.55 197.515 250.081 199.043 250.081 200.913 L 250.081 212.469 Z" style="stroke: rgb(0, 0, 0); fill: rgb(0, 130, 56); stroke-width: 3px;"/>
  <g transform="matrix(0.932464, 0, 0, 0.932464, -56.429573, 13.408046)" style="">
    <g>
      <path d="M 263.173 -0.914 C 157.142 -0.914 71.173 85.055 71.173 191.086 C 71.173 297.117 263.173 511.086 263.173 511.086 C 263.173 511.086 455.173 297.117 455.173 191.086 C 455.173 85.055 369.204 -0.914 263.173 -0.914 Z M 263.173 319.086 C 192.485 319.086 135.173 261.774 135.173 191.086 C 135.173 120.398 192.485 63.086 263.173 63.086 C 333.861 63.086 391.173 120.398 391.173 191.086 C 391.173 261.774 333.861 319.086 263.173 319.086 Z" style="fill: rgb(0, 130, 56); stroke: rgb(0, 0, 0); stroke-width: 8.72734px;"/>
    </g>
  </g>
</svg>