<svg height="512px" viewBox="-4 0 512 512" width="512px" xmlns="http://www.w3.org/2000/svg"><path d="m260.339844 355.796875h-17.355469c-14.378906 0-26.035156-11.65625-26.035156-26.03125v-34.714844c0-4.792969 3.886719-8.675781 8.679687-8.675781h52.066406c4.792969 0 8.675782 3.882812 8.675782 8.675781v34.714844c0 14.375-11.652344 26.03125-26.03125 26.03125zm-26.035156-52.066406v26.03125c0 4.792969 3.886718 8.679687 8.679687 8.679687h17.355469c4.792968 0 8.675781-3.886718 8.675781-8.679687v-26.03125zm0 0" fill="#808285"/><path d="m485.964844 0h-468.609375c-9.585938 0-17.355469 7.769531-17.355469 17.355469 0 9.585937 7.769531 17.355469 17.355469 17.355469h468.609375c9.585937 0 17.355468-7.769532 17.355468-17.355469 0-9.585938-7.769531-17.355469-17.355468-17.355469zm0 0" fill="#ffda44"/><path d="m173.558594 173.558594-95.457032 95.457031 95.457032-95.457031 78.101562 78.101562v-216.949218h-225.625v277.695312h225.625v-60.746094zm0 0" fill="#78b9eb"/><path d="m251.660156 34.710938v216.949218l156.203125-156.203125-156.203125 156.203125v60.746094h225.628906v-277.695312zm0 0" fill="#96c8ef"/><path d="m251.660156 451.253906c-4.792968 0-8.675781-3.886718-8.675781-8.675781v-95.460937c0-4.792969 3.882813-8.675782 8.675781-8.675782 4.792969 0 8.679688 3.886719 8.679688 8.675782v95.460937c0 4.792969-3.886719 8.675781-8.679688 8.675781zm0 0" fill="#808285"/><path d="m329.761719 512h-17.355469c0-33.550781-27.195312-60.746094-60.746094-60.746094-33.546875 0-60.746094 27.195313-60.746094 60.746094h-17.355468c0-43.132812 34.96875-78.101562 78.101562-78.101562 43.136719 0 78.101563 34.96875 78.101563 78.101562zm0 0" fill="#808285"/><g fill="#f1f2f2"><path d="m78.101562 277.695312c-4.792968 0-8.675781-3.886718-8.675781-8.679687 0-2.300781.914063-4.507813 2.539063-6.132813l95.460937-95.457031c3.386719-3.390625 8.878907-3.390625 12.269531 0l71.964844 71.964844 150.070313-150.070313c3.445312-3.328124 8.941406-3.234374 12.269531.214844 3.25 3.363282 3.25 8.695313 0 12.058594l-156.203125 156.203125c-3.390625 3.386719-8.882813 3.386719-12.273437 0l-71.964844-71.964844-89.320313 89.320313c-1.628906 1.628906-3.835937 2.542968-6.136719 2.542968zm0 0"/><path d="m407.863281 156.203125c-4.792969 0-8.675781-3.886719-8.675781-8.675781v-43.390625h-43.390625c-4.792969 0-8.679687-3.886719-8.679687-8.679688s3.886718-8.675781 8.679687-8.675781h60.746094v60.746094c0 4.789062-3.886719 8.675781-8.679688 8.675781zm0 0"/></g></svg>
