<svg xmlns="http://www.w3.org/2000/svg" xmlns:xlink="http://www.w3.org/1999/xlink" version="1.1" x="0px" y="0px" viewBox="0 0 100 125" style="enable-background:new 0 0 100 100;" xml:space="preserve"><path d="M80.0253906,31.0668945v-6.0541992c0-0.0390625-0.0019531-0.0771484-0.0039063-0.1152344  c-0.001709-0.0223389-0.0085449-0.0429688-0.0112305-0.0650635c-0.3234863-6.0390015-16.697998-8.7943115-31.9331055-8.7943115  c-15.3876953,0-31.9492188,2.8085938-31.9492188,8.9746094v12.5126953c0,2.1858521,2.0128174,4.0309448,5.9777832,5.508728  c-5.5577393,1.2341309-10.7426758,3.2901611-11.0668945,6.6623535C11.0148926,49.8026123,11,49.9120483,11,50.0253906v12.5126953  c0,2.0194092,1.7373047,3.7526855,5.1279297,5.1669312v7.2822876c0,6.1660156,16.5615234,8.9746094,31.9492188,8.9746094  s31.9482422-2.8085938,31.9482422-8.9746094V62.4746094c0-0.1140137-0.0151367-0.2240601-0.0393066-0.3308105  c-0.1713867-1.7698975-1.6945801-3.321167-4.5751953-4.6206665C81.9804688,56.3307495,89,54.1068115,89,50.0380859V37.5253906  C89,34.8447876,85.9804688,32.6743164,80.0253906,31.0668945z M86,37.5253906c0,0.0526123-0.0126953,0.1112061-0.0343018,0.1732788  c-0.006958,0.0198364-0.0197754,0.0419922-0.0289307,0.0627441c-0.0196533,0.0441895-0.0419922,0.0894165-0.0723877,0.1375732  c-0.0168457,0.0267334-0.0384521,0.0550537-0.0587158,0.0829468c-0.0336914,0.0462646-0.0712891,0.09375-0.1147461,0.1429443  c-0.0270996,0.0309448-0.0568848,0.062439-0.0878906,0.0944214c-0.0491943,0.0504761-0.1047363,0.102478-0.1638184,0.1554565  c-0.0371094,0.0332642-0.0737305,0.0664063-0.1149902,0.1005249c-0.069458,0.0576172-0.1484375,0.1172485-0.2297363,0.1773071  c-0.0429688,0.0317993-0.0822754,0.0628662-0.1287842,0.0952759C84.8480225,38.8300171,84.7180176,38.9142456,84.5778809,39  c-0.0189209,0.0115967-0.0341797,0.022644-0.0534668,0.0343018c-0.1618652,0.0973511-0.3406982,0.1969604-0.5325928,0.2979126  c-0.0596924,0.0313721-0.1278076,0.0635376-0.1905518,0.0952148c-0.1395264,0.0705566-0.2827148,0.1412964-0.4373779,0.2130737  c-0.085083,0.0394287-0.1768799,0.0792236-0.2666016,0.1189575c-0.1478271,0.0654297-0.300415,0.1312256-0.4613037,0.1973267  c-0.1026611,0.0422363-0.2092285,0.0845337-0.3173828,0.1269531c-0.166626,0.0653076-0.3410645,0.1308594-0.520752,0.1964111  c-0.1159668,0.0424194-0.2321777,0.0847778-0.3537598,0.1271362c-0.1950684,0.0680542-0.4020996,0.1361084-0.6119385,0.2040405  c-0.1217041,0.0393677-0.2390137,0.0787964-0.3656006,0.118103c-0.2612305,0.0810547-0.5388184,0.1616821-0.8217773,0.2420044  c-0.0898438,0.0255127-0.1721191,0.0513306-0.2641602,0.0767212c-0.3752441,0.1035767-0.7709961,0.2061768-1.184082,0.3075562  c-0.1330566,0.0326538-0.2775879,0.0643311-0.4146729,0.0966797c-0.2322998,0.0548706-0.4705811,0.1092529-0.7147217,0.163147  c0.0177002-0.0107422,0.0332031-0.022522,0.0507813-0.0333252c0.1989746-0.1223145,0.3916016-0.2470093,0.5738525-0.3756714  c0.0042725-0.0029907,0.0089111-0.0057373,0.0130615-0.008667c0.1867676-0.1323853,0.3618164-0.2689819,0.5292969-0.4082642  c0.0465088-0.0386353,0.0895996-0.0783691,0.1345215-0.1174927c0.1188965-0.1035156,0.2322998-0.2087402,0.3398438-0.31604  c0.0461426-0.0461426,0.0919189-0.0924072,0.1359863-0.1392822c0.1082764-0.1151123,0.2088623-0.232666,0.3034668-0.3521729  c0.0280762-0.0354614,0.0592041-0.0698853,0.0860596-0.1057129c0.1160889-0.1549072,0.2205811-0.3133545,0.3126221-0.4755859  c0.0200195-0.0354004,0.0354004-0.0722046,0.0541992-0.1079712c0.0681152-0.1286621,0.1289063-0.2594604,0.1809082-0.3928223  c0.0214844-0.0551758,0.0402832-0.1110229,0.059082-0.1669922c0.0412598-0.12323,0.074707-0.2485962,0.1018066-0.3757935  c0.0115967-0.0545044,0.0251465-0.1083374,0.0341797-0.1635742c0.0291748-0.1800537,0.048584-0.362854,0.048584-0.5507813  v-3.3417969C84.8486328,35.6025391,86,37.0761719,86,37.5253906z M48.0771484,19.0380859  c18.7304688,0,28.9482422,3.9472656,28.9482422,5.9746094c0,0.0396729-0.0136719,0.0855713-0.0258789,0.1306763  c-0.0080566,0.0317383-0.0195313,0.0620117-0.0229492,0.0704956c-0.0224609,0.0546875-0.0439453,0.0927734-0.0917969,0.1591797  c-0.0693359,0.0986328-0.1484375,0.1962891-0.1816406,0.2402344C76.5957031,25.7294922,76.4814453,25.8466797,76.2939453,26  c-0.0341797,0.0302734-0.0732422,0.0556641-0.1113281,0.0839844l-0.1308594,0.0986328  c-0.1230469,0.0917969-0.265625,0.1826172-0.4541016,0.3046875c-0.019043,0.0127563-0.036377,0.0249023-0.0533447,0.0374146  c-0.1556396,0.0934448-0.3277588,0.1890869-0.5111084,0.2858887c-0.34021,0.1735229-0.7119141,0.3461304-1.0981445,0.5164185  c-0.5997314,0.2576904-1.2958984,0.5195313-2.104248,0.7805176c-0.1530762,0.0505981-0.3076172,0.0981445-0.4633789,0.145813  c-0.2724609,0.083374-0.5505371,0.166626-0.8461914,0.2492065c-0.0596924,0.0165405-0.1179199,0.0326538-0.1766357,0.0487061  c-0.7197266,0.1973877-1.512207,0.3909912-2.3720703,0.5787354c-0.03125,0.0057983-0.0627441,0.0100098-0.0936279,0.0174561  c-0.1865234,0.0466309-0.3806152,0.0841675-0.5822754,0.1240234c-0.1474609,0.0302734-0.3000488,0.0600586-0.451416,0.0900269  c-0.2814941,0.0561523-0.5645752,0.1118164-0.8547363,0.1653442c-0.4868164,0.0891113-0.9853516,0.1768799-1.5109863,0.2612305  c-4.8798828,0.7851563-10.5517578,1.1992188-16.4023438,1.1992188c-1.0449219,0-2.0771484-0.0126953-3.1210938-0.0517578  c-0.8945313-0.0126953-1.7636719-0.0498047-2.6191406-0.0878906l-1.3925781-0.0761719  c-0.6826172-0.0380859-1.3642578-0.0878906-2.0166016-0.1386719l-0.6057129-0.0492554  c-0.2513428-0.0212402-0.5063477-0.0396729-0.7553711-0.0626221c-0.0950928-0.0115967-0.1901855-0.0222778-0.2844238-0.0316772  l-0.2451172-0.0273438c-0.0390625-0.0048828-0.0859375-0.0087891-0.1318359-0.0107422  c-0.8122559-0.0769043-1.6201172-0.1685791-2.4219971-0.2681274c-0.1323242-0.0166016-0.265625-0.0325928-0.3970947-0.0496826  c-0.8134766-0.1049805-1.6206055-0.218689-2.4123535-0.3452759c-9.4794922-1.5214844-12.5458984-3.8740234-12.5458984-4.7753906  C19.1279297,22.9853516,29.3457031,19.0380859,48.0771484,19.0380859z M19.1279297,37.5253906v-8.3974609  c0.034668,0.020874,0.0761719,0.0390625,0.1113281,0.0597534c0.3105469,0.1828003,0.638916,0.3585815,0.9833984,0.5274658  c0.1240234,0.06073,0.2539063,0.1184082,0.3815918,0.1774292c0.2788086,0.1286011,0.5639648,0.2537231,0.8598633,0.3741455  c0.1464844,0.0597534,0.293457,0.1187134,0.4438477,0.1764526c0.3103027,0.1191406,0.628418,0.2333374,0.9528809,0.3443604  c0.1347656,0.0460815,0.2658691,0.0939331,0.402832,0.1387329c0.4602051,0.1503906,0.9293213,0.2949219,1.4095459,0.4303589  c0.0450439,0.0127563,0.0916748,0.0237427,0.1368408,0.036377c0.4401855,0.1224976,0.8863525,0.2385864,1.3370361,0.3492432  c0.1671143,0.0410156,0.3349609,0.0792236,0.5030518,0.1186523c0.3383789,0.0794067,0.6767578,0.156311,1.0175781,0.2294922  c0.1813965,0.0390015,0.3615723,0.0770874,0.5430908,0.1143188c0.3480225,0.0714111,0.694458,0.1391602,1.041626,0.2044067  c0.1567383,0.02948,0.3127441,0.0601807,0.4688721,0.0884399c0.4960938,0.0898438,0.989624,0.175293,1.4759521,0.253418  c0.8156738,0.1309814,1.6589355,0.2481689,2.513916,0.3589478c0.1413574,0.0181885,0.2822266,0.0355225,0.4239502,0.0529785  c2.5238037,0.3149414,5.1971436,0.5424805,7.9611816,0.6766968l0.0941162,0.005127  c0.026123,0.0011597,0.052002,0.0014648,0.078125,0.0026245c1.9046631,0.0897217,3.845459,0.1399536,5.8085938,0.1399536  c1.5019531,0,2.9931641-0.0267334,4.4638672-0.0794678c4.4118652-0.1582031,8.6386719-0.550415,12.4150391-1.1568604  c1.203125-0.1932983,2.4460449-0.4237671,3.6790771-0.6920166c0.024292-0.0042114,0.052124-0.0079346,0.072876-0.012085  c0.25-0.0537109,0.5009766-0.1074219,0.6904297-0.1591797c0.0675049-0.0147705,0.1291504-0.0328979,0.1959229-0.0482788  c0.3206787-0.0758667,0.6390381-0.1539307,0.9556885-0.2355957c0.0336914-0.0089111,0.0706787-0.0167847,0.104248-0.0256958  c0.0603027-0.0160522,0.1292725-0.0361938,0.1911621-0.0527954c0.3114014-0.0826416,0.6201172-0.1670532,0.9251709-0.2556152  c0.038208-0.0110474,0.0733643-0.0224609,0.1114502-0.0336304c0.4273682-0.1255493,0.8453369-0.2573242,1.255249-0.3950806  c0.2075195-0.0632324,0.40271-0.1297607,0.5443115-0.1837769l0.1708984-0.0576172  c0.3662109-0.1357422,0.7050781-0.2714844,1.0449219-0.4130859c0.017334-0.0073853,0.0324707-0.0149536,0.0496826-0.0223389  c0.1795654-0.0757446,0.3493652-0.1558838,0.5223389-0.2346802c0.1306152-0.0598755,0.2626953-0.1202393,0.388916-0.1807251  c0.1281738-0.0621948,0.2568359-0.1238403,0.3807373-0.1878662c0.0819092-0.0410156,0.1674805-0.0808716,0.2481689-0.1224365  c0.1513672-0.0800781,0.3027344-0.1669922,0.4492188-0.2519531l0.0810547-0.0498047  c0.0029297-0.0019531,0.0048828-0.0029297,0.0078125-0.0039063v3.0976563v5.2949219  c0,0.1911621-0.1352539,0.4420166-0.4304199,0.7328491c-1.2788086,1.2602539-5.5598145,3.2715454-14.848877,4.4331665  c-2.9394531,0.3740234-6.0849609,0.6210938-9.3515625,0.7324219C51.0048828,43.4746094,49.5517578,43.5,48.0771484,43.5  c-6.9277344,0-13.3974609-0.5527344-18.6972656-1.5966797c-0.8525391-0.1757813-1.6542969-0.3515625-2.4228516-0.5410156  C20.5341797,39.8017578,19.1279297,38.0634766,19.1279297,37.5253906z M25.1025391,45.4912109v4.546875  c0,0.2328491,0.0307617,0.4603271,0.0761719,0.6853638c0.0126953,0.0631714,0.029541,0.1257324,0.0458984,0.1882935  c0.0461426,0.1771851,0.1066895,0.3518677,0.1813965,0.5241089c0.0216064,0.0496216,0.0385742,0.1001587,0.0625,0.149353  c0.1036377,0.2132568,0.229126,0.4226685,0.3771973,0.6281128c0.0321045,0.0444336,0.0710449,0.0876465,0.1052246,0.1317139  c0.1281738,0.1656494,0.2712402,0.3286743,0.4289551,0.4890747c0.0544434,0.055481,0.1088867,0.1110229,0.1668701,0.1658325  c0.2008057,0.1898193,0.4165039,0.3770142,0.6593018,0.5592651c0.008667,0.0065918,0.0157471,0.0134277,0.0245361,0.0200195  c0.2537842,0.1891479,0.5372314,0.3728638,0.8363037,0.553772c0.0795898,0.0482788,0.1638184,0.0957031,0.2468262,0.1433716  c0.2480469,0.1424561,0.5102539,0.2822876,0.7868652,0.4194336c0.079834,0.0396729,0.1557617,0.0800781,0.2380371,0.1192627  c0.3547363,0.1688232,0.7299805,0.3339233,1.1289063,0.4945679c0.0158691,0.0064087,0.0290527,0.0133057,0.0450439,0.0197144  c-0.4458008-0.0454102-0.8858643-0.0963135-1.3231201-0.1594238c-0.03125-0.0048828-0.0654297-0.0078125-0.0996094-0.0107422  c-0.8710938-0.0996094-1.7177734-0.2226563-2.5439453-0.3583984C17.0664063,53.2792969,14,50.9267578,14,50.0253906  C14,49.1601563,16.7597656,47.0019531,25.1025391,45.4912109z M14,62.5380859v-8.3964844  c0.0495605,0.0298462,0.1086426,0.0559082,0.1591797,0.0853882c0.2946777,0.1717529,0.6030273,0.3378296,0.9277344,0.4972534  c0.1313477,0.0645142,0.269165,0.1258545,0.4050293,0.1884155c0.2713623,0.1248779,0.5488281,0.24646,0.8361816,0.3636475  c0.151123,0.0615234,0.3024902,0.1223755,0.4575195,0.1818848c0.3066406,0.1176147,0.6209717,0.2304077,0.9414063,0.3401489  c0.1367188,0.046814,0.2697754,0.0953369,0.4088135,0.1407471c0.4610596,0.1506348,0.9310303,0.2953491,1.4119873,0.4309692  c0.0334473,0.0094604,0.0681152,0.0177002,0.1016846,0.0270386c0.4525146,0.1263428,0.9119873,0.2455444,1.3758545,0.359314  c0.1574707,0.0386353,0.3155518,0.0745239,0.473877,0.1117554c0.3500977,0.0823364,0.7001953,0.1618042,1.0528564,0.2374878  c0.1715088,0.0368042,0.3416748,0.072876,0.5134277,0.1080933c0.359375,0.0737915,0.7174072,0.1437378,1.0755615,0.2110596  c0.1479492,0.027771,0.295166,0.0567017,0.442627,0.0834351c0.4980469,0.09021,0.9935303,0.1760254,1.4816895,0.2544556  c0.9707031,0.1591797,1.8623047,0.2841797,2.7265625,0.3818359c0.0087891,0.0009766,0.0185547,0.0019531,0.0273438,0.0029297  c0.5302734,0.0761719,1.0595703,0.140625,1.5664063,0.1875c1.0839844,0.1298828,2.2314453,0.2363281,3.3378906,0.3095703  c0.2470703,0.0283203,0.4931641,0.0439453,0.6796875,0.0527344c0.4169922,0.0419922,0.8476563,0.0703125,1.2236328,0.0810547  c0.5263672,0.0371094,1.0634766,0.0615234,1.6025391,0.0869141l0.1005859,0.0048828  c0.2490234,0.0126953,0.4980469,0.0234375,0.7480469,0.0332031l1.3378906,0.0478516  c0.4101563,0.0117188,0.8222656,0.0234375,1.2148438,0.0234375c0.0039063,0,0.0078125,0,0.0107422,0  C41.40625,58.9873047,42.1708984,59,42.9482422,59c0.7783203,0,1.5429688-0.0126953,2.3046875-0.0253906  c0.8095703-0.0126953,1.6064453-0.0371094,2.3916016-0.0625c0.0019531,0,0.0986328-0.0029297,0.1005859-0.0029297  c0.543457-0.0192871,1.0700684-0.0467529,1.5771484-0.0760498c0.1740723-0.0093384,0.3544922-0.0158691,0.5270996-0.0254517  c1.4953613,0.0828247,2.9702148,0.1323242,4.4287109,0.1647949c0.4335938,0.0097046,0.8607178,0.0133667,1.2905273,0.0187378  c0.4931641,0.0059204,0.9976807,0.0214844,1.4831543,0.0214844c0.6513672,0,1.2921143-0.0128174,1.9355469-0.0223999  c0.2912598-0.0042114,0.5864258-0.0038452,0.8756104-0.0101318c1.3199463-0.0287476,2.6156006-0.0820923,3.894165-0.1513062  c0.3481445-0.0189819,0.6925049-0.0405273,1.0373535-0.0625c1.3188477-0.0834351,2.6213379-0.180603,3.8842773-0.307373  c0.0195313-0.0009766,0.0390625-0.0019531,0.0585938-0.0039063c0.7668457-0.0758667,1.5125732-0.1627808,2.2468262-0.2545166  c0.1602783-0.0200806,0.3197021-0.0397339,0.4782715-0.0605469c0.1437988-0.0187988,0.2927246-0.0356445,0.4350586-0.0550537  v0.2353516v4.2177734c0,0.1135254-0.0323486,0.2337036-0.097168,0.359436  c-0.9707031,1.8850708-9.2186279,5.0132446-24.6906738,5.5380859c-0.0322266,0.000061-0.0755615,0.0001831-0.0900879,0.0009155  c-1.3115234,0.0507813-2.6816406,0.0761719-4.0712891,0.0761719c-2.5026855,0-4.9592285-0.0754395-7.3225098-0.2202148  c-7.0900879-0.4342651-13.3413086-1.4924316-17.4831543-3.0092773C14.8662109,64.0869141,14,62.9648438,14,62.5380859z   M77.0253906,74.9873047c0,2.0273438-10.2177734,5.9746094-28.9482422,5.9746094  c-18.7314453,0-28.9492188-3.9472656-28.9492188-5.9746094v-6.2265625c0.0596924,0.0175781,0.1240234,0.0338745,0.1843262,0.0512695  c0.1687012,0.0487061,0.3427734,0.0959473,0.5158691,0.1434937c0.2336426,0.064209,0.4689941,0.1278076,0.7104492,0.1898193  c0.1855469,0.0477295,0.3742676,0.0943604,0.5643311,0.1408081c0.2427979,0.0592651,0.4886475,0.1174316,0.7384033,0.1746216  c0.1956787,0.0447388,0.392334,0.0890503,0.5922852,0.1325073c0.2557373,0.055603,0.5161133,0.1096802,0.7785645,0.1630859  c0.2043457,0.041626,0.407959,0.0831909,0.6162109,0.1234741c0.2731934,0.0527954,0.5522461,0.1033325,0.8320313,0.1538086  c0.2045898,0.0368652,0.4066162,0.074585,0.614502,0.1102295c0.3171387,0.0543213,0.6413574,0.1056519,0.9659424,0.1569214  c0.1783447,0.0281982,0.3529053,0.0579224,0.5335693,0.0852051c0.5023193,0.0758667,1.0124512,0.1484375,1.5307617,0.2171021  c0.1346436,0.0178223,0.2736816,0.0335083,0.4093018,0.0508423c0.3951416,0.0505371,0.791748,0.1002197,1.1951904,0.1464844  c0.2072754,0.0237427,0.4185791,0.045105,0.6278076,0.067749c0.3392334,0.0366211,0.6785889,0.0731201,1.0230713,0.1068115  c0.2304688,0.022522,0.4638672,0.0430908,0.6965332,0.06427c0.329834,0.0300293,0.6601563,0.0593872,0.9941406,0.0866089  c0.2443848,0.0198975,0.4901123,0.0384521,0.7365723,0.0568237c0.3293457,0.0245972,0.6599121,0.0481567,0.9929199,0.0700684  c0.2512207,0.0165405,0.5029297,0.0324097,0.7561035,0.0473633c0.3382568,0.0200195,0.6784668,0.038208,1.0200195,0.055481  c0.2490234,0.0125732,0.4978027,0.0252075,0.7485352,0.0362549c0.3577881,0.0158081,0.7177734,0.0289917,1.0786133,0.041687  c0.239502,0.0084229,0.4777832,0.0177002,0.7185059,0.0247192c0.3969727,0.0116577,0.7966309,0.0198364,1.1966553,0.0276489  c0.2061768,0.0040283,0.4107666,0.0096436,0.6176758,0.0126953c0.6077881,0.0089111,1.2181396,0.0140991,1.8314209,0.0140991  c1.4277344,0,2.8369141-0.0263672,4.1289063-0.0771484c0.0087891,0,0.034668-0.000061,0.0605469-0.0001831  c0.3095703,0.0114136,0.6176758,0.0128784,0.9394531,0.0128784c6.0136719,0,11.8505859-0.4277344,16.8779297-1.2363281  c0.4875488-0.0782471,0.9825439-0.1639404,1.4799805-0.2539673c0.151001-0.0273438,0.3017578-0.0569458,0.4532471-0.0853882  c0.3546143-0.0665894,0.7087402-0.1357422,1.0643311-0.2087402c0.1745605-0.0358276,0.3476563-0.0723267,0.5219727-0.1097412  c0.3499756-0.0750732,0.6975098-0.1539917,1.045166-0.2356567c0.1604004-0.0376587,0.3205566-0.0740356,0.4801025-0.1131592  c0.4644775-0.1138916,0.9244385-0.2331543,1.3775635-0.3596802c0.0325928-0.0090942,0.0661621-0.0169678,0.0986328-0.0261841  c0.4819336-0.1358032,0.9526367-0.2807007,1.4145508-0.4315796c0.1367188-0.0446777,0.2675781-0.0924072,0.4020996-0.1384277  c0.3232422-0.1105957,0.6405029-0.2243652,0.949707-0.3430176c0.152832-0.0586548,0.302002-0.1185913,0.4509277-0.1792603  c0.2907715-0.1184082,0.571167-0.241333,0.8453369-0.3676147c0.1331787-0.0613403,0.2684326-0.1213989,0.3973389-0.1846924  c0.3310547-0.1625366,0.645874-0.3317261,0.9458008-0.507019c0.0454102-0.0266113,0.098877-0.0500488,0.1435547-0.0769653  V74.9873047z M77.0253906,62.4746094c0,0.0570679-0.0128174,0.1201172-0.0383301,0.1882935  c-0.0073242,0.0197144-0.0236816,0.0427246-0.0332031,0.0632935c-0.0234375,0.0505371-0.0465088,0.1009521-0.0839844,0.1564941  c-0.0179443,0.0266113-0.0461426,0.0564575-0.0673828,0.0841064c-0.0412598,0.0535889-0.0804443,0.1066284-0.1342773,0.1639404  c-0.0290527,0.0310059-0.0690918,0.0648193-0.1020508,0.0968628c-0.0593262,0.0576782-0.1166992,0.1148682-0.1888428,0.1755371  c-0.0418701,0.0352783-0.0950928,0.072876-0.1414795,0.1091309c-0.0775146,0.0606079-0.1530762,0.1209717-0.2434082,0.184021  c-0.0568848,0.0397339-0.1256104,0.0814209-0.1877441,0.1220703c-0.0949707,0.0621948-0.1881104,0.1239624-0.2956543,0.1879883  c-0.074585,0.0444336-0.161377,0.090271-0.2421875,0.135498c-0.1114502,0.0623169-0.2207031,0.1243896-0.3439941,0.1879883  c-0.0952148,0.0490112-0.2030029,0.0991211-0.3054199,0.1487427c-0.126709,0.0614624-0.2509766,0.1226807-0.3891602,0.1849365  c-0.0219727,0.0098877-0.0476074,0.0200195-0.0700684,0.0299683c0.0117188-0.0161133,0.0195313-0.0330811,0.0310059-0.0493164  c0.0639648-0.0909424,0.1181641-0.1842651,0.1739502-0.2772217c0.0435791-0.072876,0.0911865-0.1447754,0.1295166-0.2189941  c0.0522461-0.100769,0.0927734-0.2044067,0.1351318-0.3075562c0.0285645-0.0695801,0.0623779-0.1378784,0.0864258-0.2084961  c0.039917-0.1177979,0.06604-0.2387085,0.0928955-0.3595581c0.0133057-0.0593262,0.0332031-0.1171265,0.0432129-0.1771851  c0.0303955-0.182373,0.0471191-0.3678589,0.0471191-0.5570679v-1.9384766  C76.5351563,61.4453125,77.0253906,62.15625,77.0253906,62.4746094z M86,50.0380859  c0,0.9160156-3.1376953,3.3007813-12.8417969,4.8271484c-1.4560547,0.234375-3.0263672,0.4365234-4.6679688,0.5996094  c-0.0214844,0.0009766-0.0419922,0.0029297-0.0634766,0.0048828c-1.2275391,0.1237793-2.4951172,0.2180786-3.7770996,0.300415  c-0.3466797,0.0220337-0.6933594,0.0440063-1.0437012,0.0629883c-1.241333,0.0678101-2.501709,0.1196899-3.7880859,0.147522  c-0.2838135,0.0061646-0.5737305,0.0056763-0.859375,0.0099487c-1.1083984,0.0160522-2.2337646,0.0152588-3.3720703,0.0007935  c-0.4035645-0.0049438-0.8056641-0.008667-1.21521-0.0176392c-1.4488525-0.0322266-2.9127197-0.0811768-4.4034424-0.1641846  c-0.0180664-0.0006714-0.0581055-0.0004883-0.0939941-0.0004883c-4.8022461-0.2837524-9.2895508-0.8787231-12.9753418-1.7192383  c-0.0380859-0.0087891-0.0800781-0.0166016-0.1230469-0.0224609c-4.8654785-1.0923462-7.1402588-2.3309937-8.086792-3.1746216  c-0.4302979-0.3834839-0.5860596-0.6853027-0.5860596-0.8546753v-5.3378906  c0.2246094,0.0478516,0.4521484,0.0957031,0.6845703,0.1435547c5.5,1.0839844,12.1708984,1.65625,19.2900391,1.65625  c0.753418,0,1.5008545-0.0066528,2.2382813-0.0195923c0.1094971-0.0019531,0.2139893-0.0062866,0.322998-0.0085449  c0.611084-0.0123901,1.2192383-0.0266724,1.8117676-0.0480347C53.9355469,46.4746094,55.4824219,46.5,57.0517578,46.5  c2.6259766,0,5.1855469-0.078125,7.6054688-0.2333984c3.3349609-0.2070313,6.4550781-0.5449219,9.2734375-1.0029297  c0.4838867-0.0777588,0.9750977-0.1627197,1.4688721-0.2520752c0.1636963-0.0296021,0.3275146-0.0617676,0.4918213-0.0927734  c0.3395996-0.0639648,0.6787109-0.130188,1.0192871-0.2000122c0.1860352-0.038147,0.3704834-0.0772095,0.5562744-0.1171265  c0.3348389-0.0720215,0.6674805-0.147522,1.0001221-0.2255249c0.1733398-0.0406494,0.3464355-0.0800171,0.5187988-0.1223755  c0.4379883-0.1075439,0.8710938-0.2205811,1.2988281-0.3392944c0.0576172-0.0159302,0.1168213-0.0300903,0.1740723-0.0462646  c0.4765625-0.1344604,0.9421387-0.277771,1.3990479-0.427002c0.1448975-0.0473633,0.2835693-0.0979004,0.4261475-0.1467285  c0.3151855-0.1080933,0.6245117-0.2190552,0.9262695-0.3347778c0.1577148-0.0604248,0.3114014-0.1221313,0.4648438-0.1847534  c0.2844238-0.1160278,0.5588379-0.2363892,0.8273926-0.3599243c0.1386719-0.0637207,0.2790527-0.1262207,0.4130859-0.1919556  c0.3208008-0.1575928,0.6252441-0.3218994,0.916748-0.4915161C85.885498,41.7005005,85.9477539,41.6730347,86,41.6416016V50.0380859  z"/></svg>