<?xml version="1.0" ?><svg viewBox="0 0 512 512" xmlns="http://www.w3.org/2000/svg"><title/><g id="Credit_card"><path d="M454.7734,88.75H57.2227A29.2568,29.2568,0,0,0,28,117.9766V394.0234A29.2568,29.2568,0,0,0,57.2227,423.25H454.7734A29.2576,29.2576,0,0,0,484,394.0234V117.9766A29.2576,29.2576,0,0,0,454.7734,88.75Zm-397.5507,16H454.7734A13.2393,13.2393,0,0,1,468,117.9766V152.75H44V117.9766A13.2385,13.2385,0,0,1,57.2227,104.75ZM468,216.75H44v-48H468Zm-13.2266,190.5H57.2227A13.2385,13.2385,0,0,1,44,394.0234V232.75H468V394.0234A13.2393,13.2393,0,0,1,454.7734,407.25Z"/><path d="M117.082,327.25H87.9531a8,8,0,0,0,0,16H117.082a8,8,0,0,0,0-16Z"/><path d="M194.52,327.25H165.3906a8,8,0,0,0,0,16H194.52a8,8,0,0,0,0-16Z"/><path d="M271.9531,327.25H242.8242a8,8,0,0,0,0,16h29.1289a8,8,0,0,0,0-16Z"/><path d="M396.93,295.25a39.59,39.59,0,0,0-22.9863,7.3125,40.0008,40.0008,0,1,0-.0015,65.375A39.6024,39.6024,0,0,0,396.93,375.25a40,40,0,0,0,0-80Zm-69.9063,40a24,24,0,1,1,24,24A24.0263,24.0263,0,0,1,327.0234,335.25Zm69.9063,24a23.7394,23.7394,0,0,1-11.8745-3.2578,39.0277,39.0277,0,0,0,.001-41.4824,23.7309,23.7309,0,0,1,11.8735-3.26,24,24,0,0,1,0,48Z"/></g></svg>