<?xml version="1.0" ?><svg viewBox="0 0 512 512" xmlns="http://www.w3.org/2000/svg"><title/><g id="Motorbike"><path d="M410.02,262.4063H407.45l-25.5684-95.43h17.6651a7.998,7.998,0,0,0,8-8V108.82a7.9979,7.9979,0,0,0-8-8h-64.211a33.057,33.057,0,0,0-31.9878,25.0781H269.68a8,8,0,1,0,0,16h33.6684a33.0466,33.0466,0,0,0,23.9878,23.9873V348.3906H253.4375V262.1172a42.9062,42.9062,0,0,0-42.8594-42.8516H167.3008V98.2891a7.9979,7.9979,0,0,0-8-8H16a7.9979,7.9979,0,0,0-8,8V227.2656a7.9979,7.9979,0,0,0,8,8H95.1855a137.2066,137.2066,0,0,0-73.01,121.125,7.9979,7.9979,0,0,0,8,8h42.85a65.264,65.264,0,0,0,129.5576,0H345.2446a65.2641,65.2641,0,0,0,129.5586-.0068L496,364.3828a7.9979,7.9979,0,0,0,8-8A94.0844,94.0844,0,0,0,410.02,262.4063Zm-16.4336,10.07a60.3191,60.3191,0,0,1-50.25,75.3906V166.9766h21.9805ZM318.2578,133.8984A17.0987,17.0987,0,0,1,335.3359,116.82h56.211v34.1563h-56.211A17.0987,17.0987,0,0,1,318.2578,133.8984Zm-166.957-27.6093v19.8281H24V106.2891ZM24,142.1172H151.3008v77.1484H24Zm135.3008,93.1484h51.2773a26.8879,26.8879,0,0,1,26.8594,26.8516v86.2734H38.5811C42.7314,285.334,95.2119,235.2656,159.3008,235.2656ZM137.8047,405.7109a49.3569,49.3569,0,0,1-48.6113-41.32H186.416A49.3569,49.3569,0,0,1,137.8047,405.7109Zm272.2187,0a49.3569,49.3569,0,0,1-48.6118-41.3222l97.2241-.0039A49.356,49.356,0,0,1,410.0234,405.7109Zm-28.0088-57.3222a76.853,76.853,0,0,0,13.8565-13.85,75.6242,75.6242,0,0,0,15.106-56.0879,78.0726,78.0726,0,0,1,76.6167,69.9316Z"/></g></svg>