<svg height="512px" viewBox="-13 0 512 512.28284" width="512px" xmlns="http://www.w3.org/2000/svg"><path d="m100.742188 164.082031-49.601563-19.199219c-2.398437-1-5.199219.199219-6.199219 2.800782l-4.199218 10.800781c-1.199219 3 .199218 6.398437 3.199218 7.796875l41.199219 18.601562c2.800781 1.199219 6.199219.601563 8.199219-1.800781l9.402344-10.800781c1.800781-2.199219 1.597656-5.398438-.601563-7.199219-.398437-.597656-.800781-.800781-1.398437-1zm0 0" fill="#e9e9ea"/><path d="m115.140625 297.484375h65.402344c8.796875 0 16-7.203125 16-16 0-8.800781-7.203125-16-16-16h-65.402344c-1 0-2-.601563-2.398437-1.402344l-32.601563-64c-4-7.800781-13.597656-11-21.398437-7-7.800782 4-11 13.601563-7 21.402344l32.597656 64c5.800781 11.796875 17.800781 19.199219 30.800781 19zm0 0" fill="#e9e9ea"/><path d="m41.140625 164.683594c.601563.597656 1.199219 1.199218 2.199219 1.597656l41.203125 18.601562c2.796875 1.199219 6.199219.601563 8.199219-1.800781l9.398437-10.800781c9.199219 21.601562 13.402344 45.203125 12.199219 68.601562l-1.398438 23.800782c-.199218-.199219-.199218-.199219-.199218-.402344l-32.601563-64c-4-7.796875-13.597656-11-21.398437-7-7.800782 4-11 13.601562-7 21.402344l32.597656 64c5.203125 10.398437 15.402344 17.398437 27 18.597656l-.597656 12.800781v14h-80l-8-101.597656c-1.800782-21 5-41.800781 18.398437-57.800781zm0 0" fill="#d3d3dd"/><path d="m385.140625 164.082031 49.601563-19.199219c2.398437-1 5.199218.199219 6.199218 2.800782l4.199219 10.800781c1.199219 3-.199219 6.398437-3.199219 7.796875l-41.199218 18.601562c-2.800782 1.199219-6.199219.601563-8.199219-1.800781l-9.402344-10.800781c-1.800781-2.199219-1.597656-5.398438.601563-7.199219.398437-.597656.800781-.800781 1.398437-1zm0 0" fill="#ffe5a4"/><path d="m370.742188 297.484375h-65.402344c-8.796875 0-16-7.203125-16-16 0-8.800781 7.203125-16 16-16h65.402344c1 0 2-.601563 2.398437-1.402344l32.601563-64c4-7.800781 13.597656-10.800781 21.597656-6.800781 7.800781 4 10.800781 13.402344 7 21.203125l-32.597656 64c-6 11.796875-18 19.199219-31 19zm0 0" fill="#ffe5a4"/><path d="m444.742188 164.683594c-.601563.597656-1.199219 1.199218-2.199219 1.597656l-41.203125 18.601562c-2.796875 1.199219-6.199219.601563-8.199219-1.800781l-9.398437-10.800781c-9.199219 21.601562-13.402344 45.203125-12.199219 68.601562l1.199219 23.601563c.199218-.203125.199218-.203125.199218-.402344l32.601563-64c4-7.800781 13.597656-11 21.398437-7.199219 7.800782 3.800782 11 13.601563 7.199219 21.398438 0 0 0 .203125-.199219.203125l-32.601562 64c-5.199219 10.398437-15.398438 17.398437-27 18.597656l.601562 12.800781v14h80l8-101.601562c2-20.796875-4.800781-41.597656-18.199218-57.597656zm0 0" fill="#fcd770"/><path d="m375.339844 324.082031-48 10.800781c-20 4.601563-34.398438 22.398438-34.398438 43v82.398438h45.398438v-70.796875c0-7.800781 6.402344-14.203125 14.203125-14.203125h74.597656c15.402344 0 28-12.597656 28-28v-23.199219zm0 0" fill="#6d6c6b"/><path d="m110.542969 324.082031 48 10.800781c20 4.601563 34.398437 22.398438 34.398437 43v82.398438h-45.601562v-70.796875c0-7.800781-6.398438-14.203125-14.199219-14.203125h-74.597656c-15.402344 0-28-12.597656-28-28v-23.199219zm0 0" fill="#6d6c6b"/><path d="m323.742188 265.683594h-18.402344c-8.796875 0-16 7.199218-16 16 0 8.800781 7.203125 16 16 16h18.402344zm0 0" fill="#f9d0b4"/><path d="m162.140625 265.683594h18.402344c8.796875 0 16 7.199218 16 16 0 8.800781-7.203125 16-16 16h-18.402344zm0 0" fill="#f9d0b4"/><path d="m299.339844 467.28125-20.398438 11.800781c-4.800781 2.800781-10.199218 4.199219-15.601562 4.199219-5.597656 0-10.199219 4.601562-10.199219 10.203125v7.199219c0 3.597656 2.800781 6.398437 6.402344 6.398437h67.398437c7 0 12.601563-5.597656 12.601563-12.597656 0-.402344 0-.601563 0-1l-1.800781-22.402344-16.199219 3.601563zm0 0" fill="#c1814c"/><path d="m186.542969 467.28125 20.398437 11.800781c4.800782 2.800781 10.199219 4.199219 15.601563 4.199219 5.597656 0 10.199219 4.601562 10.199219 10.203125v7.199219c0 3.597656-2.800782 6.398437-6.402344 6.398437h-67.398438c-7 0-12.601562-5.597656-12.601562-12.597656 0-.402344 0-.601563 0-1l1.800781-22.402344 16.199219 3.601563zm0 0" fill="#c1814c"/><path d="m299.339844 467.28125v-7h38.402344v10.601562l-16.199219 3.800782zm0 0" fill="#e9e9ea"/><path d="m186.542969 467.28125v-7h-38.402344v10.601562l16.199219 3.800782zm0 0" fill="#e9e9ea"/><path d="m183.542969 342.082031v9c6 7.800781 9.199219 17.199219 9.199219 27v82.402344h37.199218v-118.402344zm0 0" fill="#6d6c6b"/><path d="m301.941406 351.484375v-9.402344h-45.199218v118.199219h36.199218v-82.398438c0-9.398437 3.199219-18.800781 9-26.398437zm0 0" fill="#6d6c6b"/><path d="m183.542969 324.082031h46.398437v18h-46.398437zm0 0" fill="#60bae2"/><path d="m256.742188 324.082031h46.398437v18h-46.398437zm0 0" fill="#60bae2"/><path d="m180.542969 265.683594c8.796875 0 16 7.199218 16 16 0 8.800781-7.203125 16-16 16h124.796875c-8.796875 0-16-7.199219-16-16 0-8.800782 7.203125-16 16-16h19.800781l-4.597656-80.402344c-.402344-6.597656-5-12.398438-11.601563-14l-30-7.597656-18.199218-9-8.402344 17.199218c-.597656 1.199219-2 2-3.398438 2h-13c-1.398437 0-2.800781-.800781-3.398437-2.199218l-7.601563-17-18.199218 9-30.199219 7.597656c-6.402344 1.601562-11.203125 7.402344-11.601563 14l-4.601562 80.402344zm0 0" fill="#60bae2"/><path d="m278.941406 163.683594-9 22c-.601562 1.800781-2.601562 2.597656-4.398437 1.800781-.601563-.203125-1-.601563-1.402344-1l-11.800781-14.601563 8.402344-17.199218zm0 0" fill="#e9e9ea"/><path d="m215.941406 185.683594c.601563 1.800781 2.601563 2.597656 4.398438 1.800781.601562-.203125 1-.601563 1.402344-1l11.398437-14.203125c-.199219-.199219-.199219-.398438-.199219-.597656l-7.601562-17-18 9zm0 0" fill="#e9e9ea"/><path d="m152.941406 297.484375h181c7.398438 0 13.199219 6 13.199219 13.199219 0 7.398437-6 13.199218-13.199219 13.199218h-181c-7.398437 0-13.199218-6-13.199218-13.199218-.199219-7.199219 5.800781-13.199219 13.199218-13.199219zm0 0" fill="#b26e3b"/><path d="m266.339844 460.28125h-46c-5.796875 0-10.597656 4.800781-10.597656 10.601562v9.398438c4 1.800781 8.398437 2.800781 12.800781 2.800781 5.597656 0 10.199219 4.601563 10.199219 10.199219v7.203125c0 3.597656-2.800782 6.398437-6.402344 6.398437h33.203125c-3.601563 0-6.402344-2.800781-6.402344-6.398437v-7.203125c0-5.597656 4.601563-10.199219 10.199219-10.199219 4.800781 0 9.402344-1 13.800781-3.199219v-9c-.199219-5.800781-4.800781-10.601562-10.800781-10.601562zm0 0" fill="#e9e9ea"/><path d="m230.140625 324.082031h26.601563v136.199219h-26.601563zm0 0" fill="#d3d3dd"/><path d="m362.542969 375.28125h109.597656c4.800781 0 8.601563 3.800781 8.601563 8.601562v114.601563c0 4.796875-3.800782 8.597656-8.601563 8.597656h-109.597656c-4.800781 0-8.601563-3.800781-8.601563-8.597656v-114.601563c-.199218-4.800781 3.800782-8.601562 8.601563-8.601562zm0 0" fill="#d3d3dd"/><path d="m13.742188 375.28125h109.597656c4.800781 0 8.601562 3.800781 8.601562 8.601562v114.601563c0 4.796875-3.800781 8.597656-8.601562 8.597656h-109.597656c-4.800782 0-8.601563-3.800781-8.601563-8.597656v-114.601563c0-4.800781 3.800781-8.601562 8.601563-8.601562zm0 0" fill="#d3d3dd"/><path d="m283.742188 76.082031c-.800782 0-1.800782 0-2.601563.199219 0 .800781.199219 1.800781.199219 2.601562v26.800782 2.597656c8.800781 1.402344 17.203125-4.597656 18.601562-13.398438 1.398438-8.800781-4.601562-17.199218-13.398437-18.601562-1-.199219-2-.199219-2.800781-.199219zm0 0" fill="#f9d0b4"/><path d="m203.542969 105.683594v-26.800782c0-.800781 0-1.800781.199219-2.601562-8.800782-1.398438-17.199219 4.402344-18.601563 13.203125-1.398437 8.796875 4.402344 17.199219 13.199219 18.597656 1.800781.402344 3.601562.402344 5.402344 0-.199219-.597656-.199219-1.597656-.199219-2.398437zm0 0" fill="#f9d0b4"/><path d="m248.140625 58.683594c-14.199219 17.800781-35 15.398437-42.199219 13.800781-1.199218-.203125-2.199218.398437-2.398437 1.597656v.402344 31.199219c0 21.398437 17.398437 38.800781 38.796875 38.800781 21.402344 0 38.800781-17.402344 38.800781-38.800781v-34.601563c0-.199219 0-.398437 0-.597656 0-1.203125-.800781-2-2-2-16.199219-.402344-24.597656-6.800781-27.800781-10-.796875-.800781-2.199219-.800781-3.199219.199219.199219-.199219 0-.199219 0 0zm0 0" fill="#f9d0b4"/><path d="m242.339844 144.484375c-6 0-12-1.402344-17.398438-4.203125v14.402344l7.601563 17c.597656 1.398437 2 2.199218 3.398437 2.199218h13c1.398438 0 2.800782-.800781 3.398438-2l8.402344-17.199218v-15c-5.601563 3.199218-12 4.800781-18.402344 4.800781zm0 0" fill="#f9d0b4"/><path d="m368.339844 84.683594c8.800781 4 19.601562 4.800781 25.402344 4.800781 2.800781 0 5.398437 1.199219 7 3.199219l3 3.597656c4.398437-2.199219 9.800781-.398438 12 4 1.398437 3 1.199218 6.402344-.601563 9.203125l3.402344 4c2.199219 2.398437 5.398437 4 8.597656 4h14c0 20.199219-16.398437 36.597656-36.800781 36.796875-20.199219 0-36.597656-16.398438-36.796875-36.796875v-25.800781c.199219-2.402344.398437-4.800782.796875-7zm0 0" fill="#f9d0b4"/><path d="m117.542969 84.683594c-8.800781 4-19.601563 4.800781-25.402344 4.800781-2.800781 0-5.398437 1.199219-7 3.199219l-3.199219 3.398437c-4.398437-2.199219-9.800781-.398437-12 4-1.398437 3-1.199218 6.402344.601563 9.199219l-3.402344 4c-2.199219 2.402344-5.398437 4-8.597656 4h-14c0 20.203125 16.398437 36.800781 36.796875 36.800781 20.203125 0 36.601562-16.398437 36.800781-36.800781v-25.597656c0-2.402344-.199219-4.800782-.597656-7zm0 0" fill="#f9d0b4"/><path d="m201.140625 76.082031c.800781 0 1.601563 0 2.402344.199219v-1.796875c0-1.203125 1-2 2-2h.398437c7 1.398437 28 4 42.199219-13.800781.800781-1 2-1 3-.402344 0 0 .199219 0 .199219.203125 3.203125 3.199219 11.800781 9.597656 27.800781 10 1.199219 0 2 1 2 2v.597656 5.199219c5-.796875 10 .800781 13.800781 4.402344v-29.199219c0-12.203125-10-22.203125-22.199218-22.203125-4 0-8 1-11.402344 3.203125-4-6.800781-11.199219-10.800781-19-10.800781h-11.398438c-22 0-40 18-40 40v18c2.800782-2.402344 6.398438-3.601563 10.199219-3.601563zm0 0" fill="#6d6c6b"/><path d="m413.339844 56.082031s48-2.597656 28 61h-14c-3.398438 0-6.398438-1.398437-8.597656-4l-3.402344-4c2.800781-4 1.800781-9.597656-2.199219-12.398437-2.597656-1.800782-6.199219-2.199219-9.199219-.601563l-3.199218-3.597656c-1.800782-2-4.402344-3.203125-7-3.203125-8.601563.203125-17.199219-1.398438-25.199219-4.796875-7.601563-3.601563-13.800781-9.800781-13.800781-20.402344-.199219-28.199219 42.398437-28 58.597656-8zm0 0" fill="#6d6c6b"/><path d="m72.542969 56.082031s-48-2.597656-28 61h14c3.398437 0 6.398437-1.398437 8.597656-4l3.402344-4c-2.800781-4-1.800781-9.597656 2.199219-12.398437 2.597656-1.800782 6.199218-2.199219 9.199218-.601563l3-3.597656c1.800782-2 4.398438-3.203125 7-3.203125 8.601563.203125 17.199219-1.398438 25.199219-4.796875 7.601563-3.601563 13.800781-9.800781 13.800781-20.402344.398438-28.199219-42.199218-28-58.398437-8zm0 0" fill="#6d6c6b"/><path d="m333.941406 135.683594h-17.398437c-2.800781.199218-5.203125-2-5.402344-4.601563-.199219-2.800781 2-5.199219 4.601563-5.398437h.597656 17.402344c2.800781-.199219 5.199218 2 5.398437 4.597656.199219 2.800781-2 5.203125-4.597656 5.402344-.203125 0-.402344 0-.601563 0zm0 0" fill="#f75c64"/><path d="m325.339844 144.28125c-2.796875 0-5-2.199219-5-5v-17.199219c.203125-2.800781 2.601562-4.800781 5.402344-4.597656 2.597656.199219 4.597656 2.199219 4.597656 4.597656v17.402344c0 2.597656-2.398438 4.796875-5 4.796875zm0 0" fill="#f75c64"/><path d="m30.941406 42.683594h-17.398437c-2.601563-.199219-4.800781-2.601563-4.601563-5.402344.199219-2.597656 2.199219-4.597656 4.601563-4.597656h17.398437c2.800782-.199219 5.199219 2 5.398438 4.597656.203125 2.800781-2 5.203125-4.597656 5.402344-.402344 0-.601563 0-.800782 0zm0 0" fill="#fcd770"/><path d="m22.339844 51.28125c-2.796875 0-5-2.199219-5-5v-17.398438c-.199219-2.800781 2-5.199218 4.601562-5.398437 2.601563-.203125 5.199219 2 5.398438 4.597656v.601563 17.398437c0 3-2.199219 5.199219-5 5.199219zm0 0" fill="#fcd770"/><path d="m400.339844 24.28125c-1.398438 0-2.597656-.597656-3.597656-1.398438-.199219-.199218-.402344-.398437-.601563-.800781-.199219-.199219-.398437-.597656-.398437-.800781-.199219-.199219-.199219-.597656-.199219-1 0-.398438-.203125-.597656-.203125-1 0-.398438 0-.597656.203125-1 0-.398438.199219-.597656.199219-1 .199218-.398438.199218-.597656.398437-.796875.199219-.203125.402344-.601563.601563-.800781 1.398437-1.402344 3.597656-1.800782 5.398437-1 .199219.199218.601563.199218.800781.398437.199219.199219.601563.402344.800782.601563.199218.199218.398437.398437.597656.800781.203125.199219.402344.597656.402344.796875.199218.203125.199218.601562.199218 1 0 .402344 0 .601562.199219 1 0 .402344 0 .601562-.199219 1 0 .402344-.199218.601562-.199218 1-.199219.402344-.199219.601562-.402344.800781-.199219.199219-.398438.601563-.597656.800781-.199219.199219-.402344.398438-.800782.601563-.199218.199219-.601562.398437-.800781.398437-.398437.199219-.597656.199219-1 .199219-.199219.199219-.398437.199219-.800781.199219zm0 0" fill="#6dcc6d"/><path d="m343.140625 17.882812c-8.800781-1.800781-15.800781-8.601562-17.597656-17.601562 0-.1992188-.203125-.398438-.402344-.1992188-.199219 0-.199219.1992188-.199219.4023438-1.800781 8.796875-8.601562 15.796875-17.601562 17.597656-.199219 0-.398438.199219-.199219.402344 0 .199219.199219.199219.199219.199219 8.800781 1.800781 15.800781 8.597656 17.601562 17.597656 0 .203125.199219.402344.398438.203125.203125 0 .203125-.203125.203125-.203125 1.796875-8.796875 8.597656-15.796875 17.597656-17.597656.199219 0 .402344-.199219.199219-.402344.203125-.199219 0-.199219-.199219-.398438zm0 0" fill="#60bae2"/><g fill="#231f20"><path d="m283.742188 113.484375c-1.199219 0-2.199219-.203125-3.402344-.203125-2.597656-.398438-4.398438-2.597656-4.199219-5.199219 0-.800781 0-1.597656 0-2.199219v-27c0-.800781 0-1.601562 0-2.199218-.199219-2.601563 1.601563-4.800782 4.199219-5.199219 11.601562-1.800781 22.402344 6 24.203125 17.597656 1.796875 11.601563-6 22.402344-17.601563 24.199219-1 .203125-2.199218.203125-3.199218.203125zm2.398437-32.203125v21.800781c6-1.398437 9.800781-7.398437 8.402344-13.398437-.800781-4-4.203125-7.402344-8.402344-8.402344zm0 0"/><path d="m201.140625 113.484375c-11.800781 0-21.199219-9.601563-21.199219-21.203125 0-11.597656 9.601563-21.199219 21.199219-21.199219 1 0 2.199219 0 3.199219.199219 2.601562.402344 4.402344 2.601562 4.203125 5.203125v2.199219 26.800781 2.199219c.199219 2.597656-1.601563 4.800781-4.203125 5.199218-1 .601563-2.199219.601563-3.199219.601563zm-2.597656-32.203125c-6 1.402344-9.800781 7.402344-8.402344 13.402344 1 4.199218 4.199219 7.398437 8.402344 8.398437zm0 0"/><path d="m242.339844 149.484375c-24.199219 0-43.796875-19.601563-43.796875-43.800781v-31.199219c0-4 3.199219-7 7-7 .398437 0 1 0 1.398437.199219 7.199219 1.398437 25 3.199218 37.199219-12 2.402344-3 6.800781-3.601563 10-1.199219.199219.199219.402344.398437.601563.398437 2.597656 2.398438 10 8.199219 24.597656 8.601563 3.800781.199219 6.800781 3.199219 6.800781 7v35.398437c0 24-19.597656 43.601563-43.800781 43.601563zm-33.796875-71.601563v27.800782c0 18.597656 15.199219 33.800781 33.796875 33.800781 18.601562 0 33.800781-15.203125 33.800781-33.800781v-32.402344c-13.199219-1-21.398437-5.597656-26-9.199219-13.800781 15.199219-32.398437 15-41.597656 13.800781zm0 0"/><path d="m294.941406 85.683594c-1.199218 0-2.601562-.601563-3.398437-1.402344-2.601563-2.398438-6-3.597656-9.402344-3-2.800781.402344-5.199219-1.398438-5.800781-4.199219 0-.199219 0-.597656 0-.800781v-3c-13.199219-1-21.398438-5.597656-26-9.199219-14 15.402344-32.796875 15.199219-41.796875 13.800781-.800781 2.398438-3 3.800782-5.601563 3.398438-3.199218-.398438-6.199218.402344-8.800781 2.402344-2.199219 1.800781-5.398437 1.398437-7-.800782-.800781-.800781-1-2-1-3.199218v-18c0-24.800782 20.199219-45 45-45h11.402344c8 0 15.398437 3.597656 20.597656 9.597656 3.199219-1.199219 6.402344-1.796875 9.800781-1.796875 15 0 27.199219 12.199219 27.199219 27.199219v29.199218c-.199219 2.601563-2.398437 4.800782-5.199219 4.800782zm-8.800781-14.402344c1.199219.203125 2.601563.402344 3.800781.800781v-20.597656c0-9.402344-7.601562-17.203125-17-17.203125-3.199218 0-6.199218.800781-8.800781 2.402344-2.398437 1.398437-5.398437.597656-6.800781-1.800782-3-5.199218-8.597656-8.398437-14.796875-8.398437h-11.601563c-19.398437 0-35 15.796875-35 35v10c1.199219-.203125 2.199219-.402344 3.398438-.601563 1.402344-2.800781 4.601562-4.199218 7.800781-3.601562 7.199219 1.402344 25 3.203125 37.199219-12 2.402344-3 6.800781-3.597656 10-1.199219.203125.199219.402344.402344.601562.402344 2.601563 2.398437 10 8.199219 24.601563 8.597656 3.796875.199219 6.796875 3.199219 6.796875 7zm0 0"/><path d="m242.941406 201.882812c-2.800781 0-5-2.199218-5-5 0-.398437 0-.601562.199219-1 0-.398437.199219-.601562.199219-1 .203125-.398437.203125-.601562.402344-.800781.199218-.199219.398437-.597656.597656-.800781 1.203125-1.199219 2.800781-1.597656 4.601562-1.398438.398438 0 .601563.199219 1 .199219.398438.199219.601563.199219.800782.402344.199218.199219.597656.398437.800781.597656 2 2 2 5.199219 0 7-.203125.199219-.402344.402344-.800781.601563-.199219.199218-.601563.398437-.800782.398437-.398437.199219-.601562.199219-1 .199219-.398437.601562-.601562.601562-1 .601562zm0 0"/><path d="m242.941406 221.683594c-1.398437 0-2.601562-.601563-3.601562-1.402344-1-1-1.398438-2.199219-1.398438-3.597656 0-.402344 0-.601563.199219-1 0-.402344.199219-.601563.199219-1 .203125-.402344.203125-.601563.402344-.800782.199218-.199218.398437-.601562.597656-.800781 1.203125-1.199219 2.800781-1.597656 4.601562-1.398437.398438 0 .601563.199218 1 .398437.398438.199219.601563.199219.800782.402344.199218.199219.597656.398437.800781.597656 2 2 2 5.199219 0 7-.203125.199219-.402344.402344-.800781.601563-.199219.199218-.601563.398437-.800782.398437-.398437.199219-.601562.199219-1 .402344-.398437 0-.601562.199219-1 .199219zm0 0"/><path d="m242.941406 241.28125c-1.398437 0-2.601562-.597656-3.601562-1.398438-.199219-.199218-.398438-.398437-.597656-.800781-.199219-.199219-.402344-.597656-.402344-.800781-.199219-.398438-.199219-.597656-.199219-1-.199219-.597656-.199219-1.398438 0-2 0-.398438.199219-.597656.199219-1 .203125-.398438.203125-.597656.402344-.796875.199218-.203125.398437-.601563.597656-.800781 1.203125-1.199219 2.800781-1.601563 4.601562-1.402344.398438 0 .601563.203125 1 .203125.398438.199219.601563.199219.800782.398437.199218.199219.597656.398438.800781.601563 2 2 2 5.199219 0 7-.203125.199219-.402344.398437-.800781.597656-.199219.199219-.601563.402344-.800782.402344-.398437.199219-.601562.199219-1 .199219-.398437.597656-.601562.597656-1 .597656zm0 0"/><path d="m242.941406 261.082031c-1.398437 0-2.601562-.597656-3.601562-1.398437-.199219-.199219-.398438-.402344-.597656-.800782-.199219-.199218-.402344-.601562-.402344-.800781-.199219-.199219-.199219-.597656-.199219-1 0-.398437 0-.597656-.199219-1 0-.398437 0-.597656.199219-1 0-.398437.199219-.597656.199219-1 .203125-.398437.203125-.597656.402344-.800781.199218-.199219.398437-.597656.597656-.796875 1.203125-1.203125 2.800781-1.601563 4.601562-1.402344.398438 0 .601563.199219 1 .199219.398438.203125.601563.203125.800782.402344.199218.199218.597656.398437.800781.597656 2 2 2 5.203125 0 7-.203125.203125-.402344.402344-.800781.601562-.199219.199219-.601563.398438-.800782.398438-.398437.203125-.601562.203125-1 .203125-.398437.597656-.601562.597656-1 .597656zm0 0"/><path d="m242.941406 280.882812c-1.398437 0-2.601562-.601562-3.601562-1.398437-.199219-.203125-.398438-.402344-.597656-.800781-.199219-.199219-.402344-.601563-.402344-.800782-.199219-.398437-.199219-.601562-.199219-1-.199219-.601562-.199219-1.398437 0-2 0-.398437.199219-.601562.199219-1 .203125-.398437.203125-.601562.402344-.800781.199218-.199219.398437-.597656.597656-.800781 1.203125-1.199219 2.800781-1.597656 4.601562-1.398438.398438 0 .601563.199219 1 .199219.398438.199219.601563.199219.800782.402344.199218.199219.597656.398437.800781.597656 2 2 2 5.199219 0 7-.203125.199219-.402344.402344-.800781.601563-.199219.199218-.601563.398437-.800782.398437-.398437.199219-.601562.199219-1 .199219-.398437.601562-.601562.601562-1 .601562zm0 0"/><path d="m292.742188 276.882812c-2.800782 0-5-2.199218-5-5v-55.800781c0-2.800781 2.199218-5 5-5 2.800781 0 5 2.199219 5 5v55.800781c0 2.800782-2.199219 5-5 5zm0 0"/><path d="m193.140625 276.683594c-2.800781 0-5-2.199219-5-5v-55.601563c0-2.800781 2.199219-5 5-5s5 2.199219 5 5v55.601563c0 2.800781-2.199219 5-5 5zm0 0"/><path d="m249.140625 179.082031h-13c-3.398437 0-6.597656-2-8-5.199219l-7.597656-17c-.203125-.601562-.402344-1.398437-.402344-2v-14.398437c0-2.800781 2.199219-5 5-5 .800781 0 1.601563.199219 2.199219.597656 4.601562 2.402344 9.800781 3.601563 15 3.601563 5.601562 0 11.203125-1.402344 16-4 2.402344-1.402344 5.402344-.402344 6.800781 2 .402344.800781.601563 1.597656.601563 2.398437v15c0 .800781-.199219 1.601563-.402344 2.199219l-8.398438 16.800781c-1.398437 3-4.398437 5-7.800781 5zm-12.199219-10h11.398438l7.402344-15.398437v-6.199219c-8.402344 2.597656-17.402344 2.796875-25.800782.398437v6zm0 0"/><path d="m266.941406 192.882812c-2.601562 0-5-1.199218-6.398437-3.199218l-11.800781-14.601563c-1.199219-1.597656-1.402344-3.597656-.601563-5.398437l8.402344-17.199219c1.199219-2.402344 4.199219-3.601563 6.597656-2.402344l18.199219 9c2.402344 1.199219 3.402344 4 2.402344 6.402344l-9 22c-1.199219 2.796875-3.601563 4.796875-6.601563 5.199219-.398437.199218-.800781.199218-1.199219.199218zm-8.601562-21.601562 8 10 6.203125-15.199219-9.402344-4.597656zm0 0"/><path d="m218.941406 192.882812c-.398437 0-.800781 0-1.199218 0-3-.398437-5.402344-2.398437-6.601563-5.199218l-9-22c-1-2.402344 0-5.199219 2.402344-6.402344l18.199219-9c2.398437-1.199219 5.398437-.199219 6.597656 2.203125v.199219l7.601562 17c1.199219 1.800781 1 4-.398437 5.597656l-11.402344 14.203125c-1.199219 2.199219-3.597656 3.398437-6.199219 3.398437zm-5.601562-26.800781 6.203125 15.199219 7.796875-9.597656-4.597656-10.199219zm0 0"/><path d="m274.941406 230.683594h-16.398437c-2.800781 0-5-2.199219-5-5 0-2.800782 2.199219-5 5-5h16.398437c2.800782 0 5 2.199218 5 5 0 2.800781-2.398437 5-5 5zm0 0"/><path d="m397.941406 190.484375c-3.601562 0-6.800781-1.601563-9.199218-4.203125l-9.402344-10.796875c-3.597656-4.203125-3.199219-10.601563 1-14.402344.800781-.800781 1.800781-1.398437 3-1.800781l49.601562-19.199219c5-2 10.601563.601563 12.601563 5.601563l4.199219 10.800781c2.199218 5.398437-.402344 11.597656-5.800782 14.199219l-41.199218 18.597656c-1.402344.800781-3.199219 1.203125-4.800782 1.203125zm38.398438-40.800781-49.398438 19s0 0-.199218.199218l9.398437 11c.601563.601563 1.601563 1 2.402344.601563l41.199219-18.601563c.597656-.199218.800781-.800781.597656-1.398437zm-51.199219 14.398437"/><path d="m404.339844 158.683594c-23 0-41.796875-18.800782-41.796875-41.800782v-25.199218c0-2.601563.199219-5.402344.796875-8 .601562-2.800782 3.203125-4.402344 5.800781-4 .402344 0 .800781.199218 1.199219.398437 8 3.601563 18 4.199219 23.203125 4.199219 4.199219 0 8.199219 1.800781 10.796875 5l1 1c7.601562-1.398438 14.800781 3.800781 16.203125 11.402344.398437 2.199218.199219 4.597656-.402344 6.597656l1.199219 1.402344c1.203125 1.398437 3 2.199218 4.800781 2.199218h14c2.800781 0 5 2.199219 5 5 0 23.199219-18.597656 41.800782-41.800781 41.800782zm-31.597656-67.199219v25.597656c0 17.601563 14.199218 31.800781 31.800781 31.800781 15.597656 0 29-11.398437 31.398437-26.800781h-8.601562c-4.796875 0-9.199219-2-12.398438-5.597656l-3.398437-4c-1.402344-1.800781-1.601563-4.203125-.402344-6.203125.402344-.597656.800781-1.398438.800781-2.199219 0-2.199219-1.800781-4-4-4-.601562 0-1.199218.199219-1.800781.402344-2 1-4.597656.597656-6-1.203125l-3.199219-3.597656c-.800781-1-2-1.601563-3.398437-1.601563-7 .199219-14-.597656-20.800781-2.597656zm0 0"/><path d="m441.140625 122.082031h-14c-4.800781 0-9.199219-2-12.398437-5.597656l-3.402344-4c-1.398438-1.800781-1.597656-4.203125-.398438-6.203125.398438-.597656.800782-1.398438.800782-2.199219 0-2.199219-1.800782-4-4-4-.601563 0-1.199219.199219-1.800782.402344-2 1-4.601562.597656-6-1.203125l-3.199218-3.597656c-.800782-1-2-1.601563-3.402344-1.601563-6 0-17.796875-.597656-27.398438-5.199219-11-5-16.601562-13.601562-16.601562-25-.398438-11.398437 7-21.800781 18-25.199218 15.800781-5.601563 36.601562-.199219 48 12 5.601562.199218 19.203125 2 28 13.398437 9.203125 11.800781 10 30 2.402344 54.199219-.402344 2.402344-2.402344 3.800781-4.601563 3.800781zm-20-13.800781 1.199219 1.402344c1.203125 1.398437 3 2.199218 4.800781 2.199218h10.199219c5.402344-18.601562 4.800781-33-1.796875-41.398437-7.800781-10.203125-22-9.601563-22.203125-9.601563-1.597656 0-3.199219-.601562-4.199219-1.800781-8.199219-10.199219-25.800781-15-38.398437-10.597656-7 2-11.601563 8.398437-11.402344 15.796875 0 7.203125 3.601562 12.402344 10.800781 15.800781 8 3.601563 18 4.199219 23.199219 4.199219 4.203125 0 8.203125 1.800781 10.800781 5l1 1c7.601563-1.398438 14.800781 3.800781 16.199219 11.402344.601562 2.199218.402344 4.597656-.199219 6.597656zm0 0"/><path d="m370.742188 302.484375h-65.402344c-11.597656 0-21-9.402344-21-21 0-11.601563 9.402344-21 21-21h64l32-62.800781c5.203125-10.402344 17.800781-14.601563 28.203125-9.402344 10.398437 5.203125 14.597656 17.800781 9.398437 28.203125 0 0 0 .199219-.199218.199219l-32.601563 64c-6.800781 13.597656-20.398437 22-35.398437 21.800781zm-65.402344-31.800781c-6 0-11 4.800781-11 11 0 6 4.800781 11 11 11h65.402344c11.199218 0 21.398437-6.199219 26.398437-16.199219l32.601563-64c2.800781-5.402344.800781-12-4.601563-14.800781-5.398437-2.800782-12-.800782-14.800781 4.597656v.203125l-32.597656 64c-1.402344 2.597656-4 4.199219-6.800782 4.199219zm0 0"/><path d="m323.742188 302.484375h-18.402344c-11.597656 0-21-9.402344-21-21 0-11.601563 9.402344-21 21-21h18.402344c2.800781 0 5 2.199219 5 5v32c0 2.796875-2.199219 5-5 5zm-18.402344-31.800781c-6 0-11 4.800781-11 11 0 6 4.800781 11 11 11h13.402344v-22zm0 0"/><path d="m455.339844 329.082031h-80c-2.796875 0-5-2.199219-5-5v-14l-.597656-12.597656c-.199219-2.601563 1.800781-5 4.398437-5.203125 9.800781-1 18.601563-7 23-16l32.601563-64c2.800781-5.398438.800781-12-4.601563-14.796875-5.398437-2.800781-12-.800781-14.800781 4.597656v.199219l-32.597656 64c-.199219.402344-.402344.800781-.800782 1.203125-1.601562 2.199219-4.800781 2.597656-7 1-1.199218-.800781-1.800781-2.203125-2-3.601563l-1.199218-23.601562c-1.199219-24.199219 3-48.597656 12.597656-71 1-2.597656 4-3.796875 6.601562-2.597656.601563.199218 1.398438.800781 1.800782 1.398437l9.398437 10.800781c.601563.601563 1.601563 1 2.402344.601563l41.199219-18.601563c.199218 0 .199218-.199218.398437-.398437 1-1.203125 2.402344-1.800781 3.800781-1.800781 1.398438 0 2.800782.597656 3.800782 1.800781 14.398437 17.199219 21.398437 39.199219 19.800781 61.398437l-8 101.601563c-.402344 2.597656-2.601563 4.597656-5.203125 4.597656zm-75-10h70.402344l7.597656-97c1.402344-18.199219-4-36.199219-14.796875-50.800781l-40 18.203125c-4.800781 2.199219-10.601563 1-14.203125-3l-4-4.601563c-6.796875 18.800782-9.796875 38.800782-8.796875 59l.199219 5.199219 24.398437-48c5.199219-10.398437 17.800781-14.597656 28.199219-9.398437 10.402344 5.199218 14.601562 17.800781 9.402344 28.199218 0 0 0 .199219-.199219.199219l-32.601563 64c-5.199218 10.402344-14.800781 18-26.199218 20.601563l.398437 8.199218v.199219zm0 0"/><path d="m338.542969 465.28125h-45.601563c-2.800781 0-5-2.199219-5-5v-82.398438c-.199218-23 15.800782-43 38.199219-47.800781l48-10.800781c.402344 0 .800781-.199219 1.199219-.199219h80c2.800781 0 5 2.199219 5 5v23c0 18.199219-14.796875 33-33 33h-74.597656c-5 0-9.199219 4.199219-9.199219 9.199219v70.800781c0 3-2.203125 5.199219-5 5.199219zm-40.601563-10h35.398438v-65.796875c0-10.601563 8.601562-19.203125 19.203125-19.203125h74.597656c12.800781 0 23-10.398438 23-23v-18h-74.398437l-47.402344 10.800781c-17.796875 4-30.597656 19.800781-30.398438 38.199219zm0 0"/><path d="m326.941406 512.082031h-67.398437c-6.402344 0-11.402344-5.199219-11.402344-11.398437v-7.199219c0-8.402344 6.800781-15.203125 15.199219-15.203125 4.601562 0 9.203125-1.199219 13.203125-3.398438l20.398437-11.800781c1.199219-.800781 2.800782-.800781 4-.398437l20.800782 7 14.800781-3.402344c2.597656-.597656 5.398437 1 6 3.800781 0 .199219 0 .402344.199219.800781l1.800781 22.398438c.796875 9.800781-6.402344 18.203125-16.203125 19-.398438-.199219-.796875-.199219-1.398438-.199219zm-27-39.398437-18.398437 10.597656c-5.601563 3.203125-11.800781 4.800781-18.203125 4.800781-3 0-5.199219 2.402344-5.199219 5.199219v7.203125c0 .796875.601563 1.398437 1.402344 1.398437h67.398437c4.199219 0 7.601563-3.398437 7.601563-7.601562 0-.199219 0-.398438 0-.597656l-1.402344-16.800782-10.597656 2.398438c-.800781.203125-1.800781.203125-2.601563-.199219zm0 0"/><path d="m321.542969 479.683594c-.601563 0-1 0-1.601563-.199219l-22.199218-7.402344c-2-.597656-3.402344-2.597656-3.402344-4.800781v-7c0-2.796875 2.203125-5 5-5h38.402344c2.800781 0 5 2.203125 5 5v10.601562c0 2.398438-1.601563 4.398438-3.800782 4.800782l-16.199218 3.597656c-.402344.203125-.800782.402344-1.199219.402344zm-12.203125-14.402344 12.402344 4.203125 11-2.402344v-1.597656zm0 0"/><path d="m87.941406 190.484375c-1.800781 0-3.398437-.402344-5-1l-41.199218-18.601563c-5.402344-2.398437-7.800782-8.601562-5.800782-14.199218l4.199219-10.800782c2-5 7.601563-7.601562 12.601563-5.601562l49.597656 19.203125c5.203125 2 7.800781 8 5.800781 13.199219-.398437 1-1 2.199218-1.800781 3l-9.398438 10.800781c-2 2.597656-5.398437 4-9 4zm-38.398437-40.800781-4 10.597656c-.203125.601562 0 1.203125.597656 1.402344l41.199219 18.597656c.800781.402344 1.800781.203125 2.402344-.597656l9.398437-10.800782v-.199218zm0 0"/><path d="m81.542969 158.683594c-23 0-41.800781-18.800782-41.800781-41.800782 0-2.800781 2.199218-5 5-5h14c1.800781 0 3.597656-.800781 4.800781-2.199218l1.199219-1.402344c-2.402344-7.398438 1.597656-15.199219 9-17.597656 2.199218-.601563 4.398437-.800782 6.597656-.402344l1-1c2.800781-3.199219 6.601562-5 10.800781-5 5.199219 0 15.199219-.597656 23.199219-4.199219 2.601562-1.199219 5.402344 0 6.601562 2.402344.199219.398437.199219.796875.398438 1.199219.601562 2.597656.800781 5.398437.800781 8v25.398437c0 23-18.597656 41.601563-41.597656 41.601563zm-31.402344-36.601563c2.800781 17.402344 19 29.199219 36.402344 26.402344 15.398437-2.402344 26.796875-15.800781 26.796875-31.402344v-25.597656c-6.796875 1.796875-14 2.796875-21 2.796875-1.199219 0-2.398438.601562-3.398438 1.601562l-3.199218 3.601563c-1.402344 1.796875-4 2.199219-6 1.199219-.601563-.199219-1.199219-.402344-1.800782-.402344-2.199218 0-4 1.800781-4 4 0 .800781.199219 1.601562.800782 2.203125 1.398437 1.796875 1.199218 4.398437-.402344 6.199219l-3.398438 4c-3.199218 3.597656-7.601562 5.597656-12.398437 5.597656zm0 0"/><path d="m58.742188 122.082031h-14c-2.199219 0-4.199219-1.398437-4.800782-3.398437-7.601562-24-6.800781-42.199219 2.398438-54.199219 8.800781-11.402344 22.402344-13.203125 28-13.402344 11.203125-12.199219 32.203125-17.597656 48-12 11 3.402344 18.402344 13.601563 18 25.199219 0 11.203125-5.796875 19.800781-16.597656 25-9.601563 4.402344-21.402344 5.203125-27.402344 5.203125-1.199219 0-2.398438.597656-3.398438 1.597656l-3.199218 3.601563c-1.402344 1.800781-4 2.199218-6 1.199218-.601563-.199218-1.199219-.398437-1.800782-.398437-2.199218 0-4 1.796875-4 4 0 .796875.199219 1.597656.800782 2.199219 1.398437 1.800781 1.199218 4.398437-.402344 6.199218l-3.398438 4c-3 3-7.601562 5.199219-12.199218 5.199219zm-10.402344-10h10.203125c1.796875 0 3.597656-.800781 4.796875-2.199219l1.203125-1.398437c-2.402344-7.402344 1.597656-15.203125 9-17.601563 2.199219-.601562 4.398437-.800781 6.597656-.398437l1-1c2.800781-3.203125 6.601563-5 10.800781-5 5.199219 0 15.199219-.601563 23.199219-4.203125 7.402344-3.398438 10.800781-8.597656 10.800781-15.796875.199219-7.203125-4.398437-13.800781-11.398437-15.800781-12.601563-4.402344-30.203125.398437-38.402344 10.597656-1 1.203125-2.597656 2-4.199219 1.800781-.199218 0-14.398437-.398437-22.199218 9.601563-6 8.398437-6.601563 22.597656-1.402344 41.398437zm0 0"/><path d="m180.542969 302.484375h-65.402344c-15 0-28.597656-8.402344-35.398437-21.601563l-32.601563-64c-5.398437-10.199218-1.398437-23 9-28.199218 10.199219-5.402344 23-1.402344 28.199219 9 0 0 0 .199218.203125.199218l32 62.800782h64c11.597656 0 21 9.398437 21 21 0 11.597656-9.402344 20.800781-21 20.800781zm-114.601563-106c-6 0-11 5-11 11 0 1.796875.398438 3.398437 1.199219 5l32.601563 64c5 10 15.199218 16.199219 26.398437 16.199219h65.402344c6 0 11-4.800782 11-11 0-6.199219-4.800781-11-11-11h-65.402344c-3 0-5.597656-1.601563-6.800781-4.199219l-32.597656-64c-1.402344-2.601563-3.601563-4.601563-6.402344-5.402344-1.199219-.398437-2.398438-.597656-3.398438-.597656zm0 0"/><path d="m180.542969 302.484375h-18.402344c-2.800781 0-5-2.203125-5-5v-32c0-2.800781 2.199219-5 5-5h18.402344c11.597656 0 21 9.398437 21 21 0 11.597656-9.402344 21-21 21zm-13.402344-10h13.402344c6 0 11-4.800781 11-11 0-6.203125-4.800781-11-11-11h-13.402344zm0 0"/><path d="m110.542969 329.082031h-80c-2.601563 0-4.800781-2-5-4.597656l-8-101.601563c-1.601563-22.199218 5.597656-44.398437 19.796875-61.398437 1-1.203125 2.402344-1.800781 3.800781-1.800781 1.402344 0 2.800781.597656 3.800781 1.800781.199219.199219.199219.199219.398438.398437l41.203125 18.601563c.796875.398437 1.796875.199219 2.398437-.601563l9.398438-10.800781c1.800781-2 5-2.398437 7-.597656.601562.398437 1 1.199219 1.402344 1.796875 9.597656 22.402344 13.800781 46.601562 12.597656 71l-1.199219 23.601562c-.199219 2.800782-2.597656 4.800782-5.199219 4.800782-1.398437 0-2.800781-.800782-3.601562-2-.199219-.402344-.597656-.800782-.796875-1.199219l-32.601563-64c-2.601562-5.402344-9.199218-7.601563-14.601562-5-5.398438 2.597656-7.597656 9.199219-5 14.597656v.199219l32.601562 64c4.398438 8.800781 13.199219 14.800781 23 16 2.601563.203125 4.601563 2.601562 4.398438 5.203125l-.597656 12.597656v14c-.199219 2.800781-2.402344 5-5.199219 5zm-75.402344-10h70.402344v-9-.199219l.398437-8.199218c-11.398437-2.601563-21-10.199219-26.199218-20.601563l-32.601563-64c-5.398437-10.199219-1.398437-23 8.800781-28.199219 10.199219-5.199218 23-1.398437 28.199219 8.800782 0 .199218.199219.199218.199219.398437l24.402344 48 .199218-5.199219c1-20-2-40-8.800781-59l-4 4.601563c-3.597656 4-9.199219 5.199219-14.199219 3l-40-18.203125c-11 14.601562-16.199218 32.601562-14.800781 50.800781zm0 0"/><path d="m192.941406 465.28125h-45.601562c-2.796875 0-5-2.199219-5-5v-70.796875c0-5-4.199219-9.203125-9.199219-9.203125h-74.597656c-18.203125 0-33-14.796875-33-33v-23.199219c0-2.800781 2.199219-5 5-5h80c.398437 0 .796875 0 1.199219.199219l48 10.800781c22.398437 5 38.398437 25 38.199218 47.800781v82.398438c0 2.800781-2.398437 5-5 5zm-40.601562-10h35.402344v-77.398438c0-18.199218-12.601563-34.199218-30.402344-38.199218l-47.398438-10.800782h-74.398437v18c0 12.800782 10.398437 23 23 23h74.597656c10.601563 0 19.199219 8.601563 19.199219 19.199219zm0 0"/><path d="m226.339844 512.082031h-67.398438c-9.800781 0-17.601562-8-17.601562-17.597656 0-.402344 0-1 0-1.402344l1.800781-22.398437c.199219-2.800782 2.601563-4.800782 5.402344-4.601563.199219 0 .398437 0 .796875.199219l14.800781 3.402344 20.800781-7c1.398438-.402344 2.800782-.402344 4 .398437l20.398438 11.800781c4 2.199219 8.601562 3.398438 13.203125 3.398438 8.398437 0 15.199219 6.800781 15.199219 15.203125v7.199219c0 6.199218-5 11.398437-11.402344 11.398437zm-73.796875-35-1.402344 16.800781c-.398437 4.199219 2.800781 7.800782 7 8.199219h.601563 67.398437c.800781 0 1.402344-.597656 1.402344-1.398437v-7.199219c0-3-2.402344-5.203125-5.203125-5.203125-6.398438 0-12.597656-1.597656-18.199219-4.796875l-18.398437-10.601563-20 6.601563c-.800782.199219-1.800782.398437-2.601563.199219zm0 0"/><path d="m164.339844 479.683594c-.398438 0-.796875 0-1.199219-.199219l-16.199219-3.601563c-2.199218-.601562-3.800781-2.601562-3.800781-4.800781v-10.597656c0-2.800781 2.199219-5 5-5h38.402344c2.796875 0 5 2.199219 5 5v7c0 2.199219-1.402344 4-3.402344 4.796875l-22.199219 7.402344c-.601562-.199219-1 0-1.601562 0zm-11.199219-12.800782 11 2.398438 12.402344-4.199219h-23.402344zm33.402344.398438"/><path d="m472.140625 512.082031h-109.597656c-7.601563 0-13.601563-6.199219-13.601563-13.597656v-114.601563c0-7.601562 6.199219-13.601562 13.601563-13.601562h109.597656c7.601563 0 13.601563 6.203125 13.601563 13.601562v114.601563c0 7.398437-6.199219 13.597656-13.601563 13.597656zm-109.597656-131.800781c-2 0-3.601563 1.601562-3.601563 3.601562v114.601563c0 2 1.601563 3.597656 3.601563 3.597656h109.597656c2 0 3.601563-1.597656 3.601563-3.597656v-114.601563c0-2-1.601563-3.601562-3.601563-3.601562zm0 0"/><path d="m123.339844 512.082031h-109.597656c-7.601563 0-13.601563-6.199219-13.601563-13.597656v-114.601563c0-7.601562 6.199219-13.601562 13.601563-13.601562h109.597656c7.601562 0 13.601562 6.203125 13.601562 13.601562v114.601563c.199219 7.398437-6 13.597656-13.601562 13.597656zm-109.597656-131.800781c-2 0-3.601563 1.601562-3.601563 3.601562v114.601563c0 2 1.601563 3.597656 3.601563 3.597656h109.597656c2 0 3.601562-1.597656 3.601562-3.597656v-114.601563c0-2-1.601562-3.601562-3.601562-3.601562zm0 0"/><path d="m333.941406 329.082031h-181c-10 0-18.199218-8.199219-18.199218-18.199219s8.199218-18.199218 18.199218-18.199218h181c10 0 18.199219 8.199218 18.199219 18.199218s-8.199219 18.199219-18.199219 18.199219zm-181-26.597656c-4.601562 0-8.199218 3.796875-8.199218 8.199219 0 4.398437 3.800781 8.199218 8.199218 8.199218h181c4.601563 0 8.199219-3.800781 8.199219-8.199218 0-4.402344-3.800781-8.199219-8.199219-8.199219zm0 0"/><path d="m259.542969 512.082031h-33.203125c-2.796875 0-5-2.199219-5-5s2.203125-5 5-5c.800781 0 1.402344-.597656 1.402344-1.398437v-7.199219c0-3-2.402344-5.203125-5.199219-5.203125-5.203125 0-10.203125-1-14.800781-3.199219-1.800782-.800781-3-2.597656-3-4.597656v-9.402344c0-8.597656 7-15.597656 15.597656-15.597656h46c8.601562 0 15.601562 7 15.601562 15.597656v9c0 2-1 3.601563-2.800781 4.402344-5 2.398437-10.398437 3.597656-16 3.597656-3 0-5.199219 2.402344-5.199219 5.199219v7.203125c0 .796875.601563 1.398437 1.398438 1.398437 2.800781 0 5 2.199219 5 5 0 2.800782-2 5.199219-4.796875 5.199219zm-21.800781-10h10.398437c0-.398437 0-1 0-1.398437v-7.199219c0-8.402344 6.800781-15.203125 15.199219-15.203125 3 0 6-.597656 8.800781-1.398438v-5.601562c0-3.199219-2.597656-5.597656-5.597656-5.597656h-46c-3.203125 0-5.601563 2.597656-5.601563 5.597656v6c2.601563.800781 5.199219 1.203125 7.800782 1.203125 8.398437 0 15.199218 6.796875 15.199218 15.199219v7.199218c-.199218.199219-.199218.800782-.199218 1.199219zm39.398437-22.199219"/><path d="m305.339844 302.484375h-124.796875c-2.800781 0-5-2.203125-5-5 0-2.800781 2.199219-5 5-5 6 0 11-4.800781 11-11 0-6.203125-4.800781-11-11-11h-19.800781c-2.800782 0-5-2.203125-5-5v-.203125l4.597656-80.398438c.402344-8.800781 6.601562-16.398437 15.402344-18.601562l29.597656-7.398438 17.601562-8.800781c2.398438-1.199219 5.398438-.199219 6.601563 2.199219v.203125l7.398437 16.398437h11.398438l8-16.398437c1.203125-2.402344 4.203125-3.601563 6.601562-2.402344l17.601563 8.800781 29.597656 7.398438c8.601563 2.203125 14.800781 9.601562 15.402344 18.601562l4.597656 80.398438c.199219 2.800781-2 5.203125-4.800781 5.203125h-.199219-19.800781c-6 0-11 5-11 11s5 11 11 11c2.800781 0 5 2.199219 5 5 0 2.796875-2.199219 5-5 5zm-107-10h89.203125c-6-9.800781-3-22.800781 6.796875-28.800781 3.402344-2 7-3 11-3h14.601562l-4.398437-75.199219c-.203125-4.601563-3.402344-8.402344-7.800781-9.402344l-30.199219-7.597656c-.402344 0-.601563-.203125-1-.402344l-13.601563-6.800781-6 12.800781c-1.398437 3-4.601562 4.800781-7.800781 5h-13c-3.398437 0-6.597656-2-8-5.199219l-5.597656-12.398437-13.402344 6.597656c-.398437.199219-.597656.199219-1 .402344l-30.199219 7.597656c-4.398437 1-7.601562 5-7.800781 9.402344l-4.398437 75.199219h14.597656c11.601562 0 21 9.398437 21 21 .203125 3.800781-1 7.597656-3 10.800781zm0 0"/><path d="m256.742188 465.28125h-26.601563c-2.800781 0-5-2.199219-5-5v-136.199219c0-2.800781 2.199219-5 5-5h26.601563c2.800781 0 5 2.199219 5 5v136.199219c0 2.800781-2.402344 5-5 5zm-21.601563-10h16.601563v-126.199219h-16.601563zm0 0"/><path d="m230.140625 347.082031h-46.597656c-2.800781 0-5-2.199219-5-5v-18c0-2.800781 2.199219-5 5-5h46.398437c2.800782 0 5 2.199219 5 5v18c.199219 2.800781-2 5-4.800781 5zm-41.597656-10h36.398437v-8h-36.398437zm0 0"/><path d="m303.140625 347.082031h-46.398437c-2.800782 0-5-2.199219-5-5v-18c0-2.800781 2.199218-5 5-5h46.398437c2.800781 0 5 2.199219 5 5v18c0 2.800781-2.199219 5-5 5zm-41.398437-10h36.398437v-8h-36.398437zm0 0"/><path d="m230.140625 465.28125h-37.199219c-2.800781 0-5-2.199219-5-5v-82.398438c0-8.601562-2.800781-17-8.199218-24-.601563-.800781-1-2-1-3v-8.800781c0-2.800781 2.199218-5 5-5h46.398437c2.800781 0 5 2.199219 5 5v118.199219c0 2.800781-2.199219 5-5 5zm-32.199219-10h27.199219v-108.199219h-36.398437v2.199219c6 8.402344 9.199218 18.402344 9.199218 28.601562zm0 0"/><path d="m292.941406 465.28125h-36.398437c-2.800781 0-5-2.199219-5-5v-118.199219c0-2.800781 2.199219-5 5-5h45.199219c2.800781 0 5 2.199219 5 5v9.402344c0 1-.402344 2.199219-1 3-5 6.796875-7.800782 15-7.800782 23.398437v82.398438c0 2.800781-2.199218 5-5 5zm-31.199218-10h26.398437v-77.398438c0-10 3-19.800781 8.800781-28v-2.800781h-35.199218zm40.199218-103.796875"/></g></svg>
