<svg height="480" viewBox="0 0 480 480" width="480" xmlns="http://www.w3.org/2000/svg" xmlns:xlink="http://www.w3.org/1999/xlink"><linearGradient id="a"><stop offset="0" stop-color="#e93e3a"/><stop offset=".357" stop-color="#ed683c"/><stop offset=".703" stop-color="#f3903f"/><stop offset="1" stop-color="#fdc70c"/></linearGradient><linearGradient id="b" gradientUnits="userSpaceOnUse" x1="240" x2="240" xlink:href="#a" y1="483.232" y2="-77.056"/><linearGradient id="c" gradientUnits="userSpaceOnUse" x1="112" x2="112" xlink:href="#a" y1="483.232" y2="-77.056"/><linearGradient id="d" gradientUnits="userSpaceOnUse" x1="304" x2="304" xlink:href="#a" y1="483.232" y2="-77.056"/><path d="m440 0h-400c-22.082031.0273438-39.9726562 17.917969-40 40v400c.0273438 22.082031 17.917969 39.972656 40 40h400c22.082031-.027344 39.972656-17.917969 40-40v-400c-.027344-22.082031-17.917969-39.9726562-40-40zm24 440c0 13.253906-10.746094 24-24 24h-400c-13.253906 0-24-10.746094-24-24v-400c0-13.253906 10.746094-24 24-24h400c13.253906 0 24 10.746094 24 24zm0 0" fill="url(#b)"/><path d="m112 192c-26.507812 0-48 21.492188-48 48s21.492188 48 48 48 48-21.492188 48-48c-.027344-26.5-21.5-47.972656-48-48zm0 80c-17.671875 0-32-14.328125-32-32s14.328125-32 32-32 32 14.328125 32 32-14.328125 32-32 32zm0 0" fill="url(#c)"/><path d="m112 64c-26.507812 0-48 21.492188-48 48s21.492188 48 48 48 48-21.492188 48-48c-.027344-26.5-21.5-47.972656-48-48zm0 80c-17.671875 0-32-14.328125-32-32s14.328125-32 32-32 32 14.328125 32 32-14.328125 32-32 32zm0 0" fill="url(#c)"/><path d="m112 320c-26.507812 0-48 21.492188-48 48s21.492188 48 48 48 48-21.492188 48-48c-.027344-26.5-21.5-47.972656-48-48zm0 80c-17.671875 0-32-14.328125-32-32s14.328125-32 32-32 32 14.328125 32 32-14.328125 32-32 32zm0 0" fill="url(#c)"/><g fill="url(#d)"><path d="m408 144h-208c-4.417969 0-8 3.582031-8 8s3.582031 8 8 8h208c4.417969 0 8-3.582031 8-8s-3.582031-8-8-8zm0 0"/><path d="m408 96h-208c-4.417969 0-8 3.582031-8 8s3.582031 8 8 8h208c4.417969 0 8-3.582031 8-8s-3.582031-8-8-8zm0 0"/><path d="m408 272h-208c-4.417969 0-8 3.582031-8 8s3.582031 8 8 8h208c4.417969 0 8-3.582031 8-8s-3.582031-8-8-8zm0 0"/><path d="m408 224h-208c-4.417969 0-8 3.582031-8 8s3.582031 8 8 8h208c4.417969 0 8-3.582031 8-8s-3.582031-8-8-8zm0 0"/><path d="m408 400h-208c-4.417969 0-8 3.582031-8 8s3.582031 8 8 8h208c4.417969 0 8-3.582031 8-8s-3.582031-8-8-8zm0 0"/><path d="m408 352h-208c-4.417969 0-8 3.582031-8 8s3.582031 8 8 8h208c4.417969 0 8-3.582031 8-8s-3.582031-8-8-8zm0 0"/></g></svg>