<!DOCTYPE svg PUBLIC "-//W3C//DTD SVG 1.1//EN" "http://www.w3.org/Graphics/SVG/1.1/DTD/svg11.dtd">
<!-- Uploaded to: SVG Repo, www.svgrepo.com, Transformed by: SVG Repo Mixer Tools -->
<svg fill="#000000" height="161px" width="161px" version="1.1" id="Capa_1" xmlns="http://www.w3.org/2000/svg" xmlns:xlink="http://www.w3.org/1999/xlink" viewBox="0 0 431.58 431.58" xml:space="preserve">
<g id="SVGRepo_bgCarrier" stroke-width="0"/>
<g id="SVGRepo_tracerCarrier" stroke-linecap="round" stroke-linejoin="round"/>
<g id="SVGRepo_iconCarrier"> <path d="M395.472,378.522l-4.899-91.265c-0.214-3.98-3.503-7.098-7.489-7.098h-11.951v-9.729c0-11.298-7.292-20.92-17.415-24.423 c1.41-5.871,0.796-12-1.814-17.542L303.26,125.174c-8.461-17.968-26.762-29.578-46.623-29.578H253.6 c10.753-10.095,17.489-24.42,17.489-40.298C271.088,24.807,246.282,0,215.791,0c-30.492,0-55.298,24.807-55.298,55.298 c0,15.877,6.736,30.203,17.489,40.298h-3.038c-19.861,0-38.162,11.61-46.623,29.578L79.677,228.465 c-2.618,5.558-3.227,11.675-1.813,17.543c-10.121,3.503-17.412,13.124-17.412,24.421v9.729H48.498c-3.986,0-7.275,3.118-7.489,7.098 l-4.899,91.265c-0.11,2.056,0.629,4.067,2.046,5.561c1.416,1.495,3.384,2.341,5.443,2.341h85.386c2.059,0,4.027-0.846,5.443-2.341 c1.417-1.494,2.156-3.505,2.046-5.561l-4.899-91.265c-0.214-3.98-3.503-7.098-7.489-7.098h-11.951v-9.729 c0-1.78-0.207-3.541-0.567-5.265c7.035-2.215,13.21-7.264,16.566-14.396l24.302-51.648v205.786 c0,14.708,11.966,26.674,26.674,26.674s26.674-11.966,26.674-26.673V279.86c0-5.518,4.489-10.006,10.007-10.006 s10.006,4.489,10.006,10.006v124.587c0,14.693,11.292,26.604,25.708,27.116c0.328,0.012,0.655,0.018,0.981,0.018 c6.947,0,13.487-2.635,18.506-7.479c5.257-5.073,8.152-11.89,8.152-19.195V199.12l24.498,52.064 c3.33,7.077,9.392,12.011,16.34,14.138c-0.339,1.674-0.532,3.382-0.532,5.107v9.729h-11.955c-3.986,0-7.275,3.118-7.489,7.098 l-4.899,91.265c-0.11,2.056,0.629,4.067,2.046,5.561c1.416,1.495,3.384,2.341,5.443,2.341h85.386c2.059,0,4.027-0.846,5.443-2.341 C394.842,382.589,395.582,380.578,395.472,378.522z M175.492,55.298C175.492,33.078,193.57,15,215.791,15 c22.22,0,40.298,18.078,40.298,40.298c0,22.22-18.078,40.298-40.298,40.298C193.57,95.596,175.492,77.519,175.492,55.298z M121.07,371.424H51.512l4.094-76.265h61.371L121.07,371.424z M75.452,280.159v-9.729c0-5.846,4.654-10.613,10.45-10.821 c2.163,1.952,4.656,3.561,7.425,4.746c0.825,0.353,1.66,0.658,2.502,0.919c0.722,1.325,1.305,3.041,1.305,5.156v9.729H75.452z M317.215,244.797l-38.784-82.425c-1.495-3.178-4.996-4.891-8.422-4.126c-3.427,0.766-5.864,3.808-5.864,7.319v239.341 c0,3.197-1.268,6.181-3.569,8.402c-2.299,2.219-5.331,3.37-8.538,3.265c-6.198-0.22-11.241-5.66-11.241-12.126V279.86 c0-13.789-11.218-25.006-25.007-25.006c-13.789,0-25.006,11.218-25.006,25.006v125.047c0,6.437-5.237,11.673-11.674,11.673 s-11.674-5.237-11.674-11.674V165.565c0-3.512-2.437-6.553-5.864-7.319c-3.429-0.768-6.927,0.949-8.422,4.126l-38.588,82.009 c-2.753,5.85-9.629,8.625-15.332,6.184c-2.949-1.262-5.198-3.602-6.333-6.589c-1.136-2.989-1.012-6.228,0.35-9.12l48.644-103.291 c5.999-12.738,18.973-20.969,33.053-20.969h81.694c14.08,0,27.054,8.23,33.053,20.969l48.644,103.291 c1.329,2.821,1.479,5.991,0.423,8.924c-1.056,2.934-3.191,5.281-6.012,6.608C326.921,253.126,319.955,250.621,317.215,244.797z M334.451,270.43c0-2.117,0.584-3.834,1.307-5.159c1.137-0.358,2.265-0.788,3.373-1.31c2.422-1.139,4.622-2.608,6.553-4.352 c5.795,0.209,10.448,4.976,10.448,10.821v9.729h-21.682V270.43z M310.51,371.424l4.094-76.265h61.371l4.094,76.265H310.51z"/> </g>
</svg>