<?xml version="1.0" encoding="iso-8859-1"?>
<!-- Generator: Adobe Illustrator 21.0.0, SVG Export Plug-In . SVG Version: 6.00 Build 0)  -->
<svg xmlns="http://www.w3.org/2000/svg" xmlns:xlink="http://www.w3.org/1999/xlink" version="1.1" id="Capa_1" x="0px" y="0px" viewBox="0 0 512 512" style="enable-background:new 0 0 512 512;" xml:space="preserve" width="512" height="512">
<g>
	<circle style="fill:#FFAA20;" cx="256" cy="256" r="256"/>
	<path style="fill:#FF8900;" d="M512,256c0-4.88-0.15-9.724-0.419-14.537l-120.224-120.82L120.643,391.357l120.836,120.225   C246.287,511.85,251.126,512,256,512C397.385,512,512,397.385,512,256z"/>
	<g>
		<rect x="120.644" y="120.644" style="fill:#F0E7DF;" width="270.713" height="270.713"/>
		<rect x="256" y="120.644" style="fill:#DFCDBD;" width="135.356" height="270.713"/>
		<rect x="143.379" y="155.54" style="fill:#FF633D;" width="82.13" height="54.722"/>
		<rect x="208.149" y="231.149" style="fill:#FF8900;" width="17.536" height="15.862"/>
		<rect x="143.071" y="231.149" style="fill:#FFAA20;" width="54.856" height="15.862"/>
		<rect x="208.149" y="267.809" style="fill:#FF8900;" width="17.536" height="15.862"/>
		<rect x="143.071" y="267.809" style="fill:#FFAA20;" width="54.856" height="15.862"/>
		<rect x="208.149" y="304.467" style="fill:#FF8900;" width="17.536" height="15.862"/>
		<rect x="143.071" y="304.467" style="fill:#FFAA20;" width="54.856" height="15.862"/>
		<rect x="208.149" y="341.127" style="fill:#FF8900;" width="17.536" height="15.862"/>
		<rect x="143.071" y="341.127" style="fill:#FFAA20;" width="54.856" height="15.862"/>
		<rect x="287.151" y="302.266" style="fill:#E70021;" width="82.13" height="54.722"/>
		<rect x="351.921" y="265.517" style="fill:#E67500;" width="17.537" height="15.862"/>
		<rect x="286.843" y="265.517" style="fill:#FF8900;" width="54.856" height="15.862"/>
		<rect x="351.921" y="228.858" style="fill:#E67500;" width="17.537" height="15.862"/>
		<rect x="286.843" y="228.858" style="fill:#FF8900;" width="54.856" height="15.862"/>
		<rect x="351.921" y="192.199" style="fill:#E67500;" width="17.537" height="15.862"/>
		<rect x="286.843" y="192.199" style="fill:#FF8900;" width="54.856" height="15.862"/>
		<rect x="351.921" y="155.54" style="fill:#E67500;" width="17.537" height="15.862"/>
		<rect x="286.843" y="155.54" style="fill:#FF8900;" width="54.856" height="15.862"/>
	</g>
</g>















</svg>
