<?xml version="1.0" encoding="utf-8"?>
<svg viewBox="0 0 500 500" width="500" height="500" xmlns="http://www.w3.org/2000/svg" xmlns:xlink="http://www.w3.org/1999/xlink">
  <defs>
    <path id="path-3" d="M 63.205 146.454 C 79.377 126.843 91.414 114.893 104.5 103.825 C 113.862 96.744 121.712 91.014 129.516 85.202 C 144.669 75.545 158.246 68.411 171.332 61.562 C 180.886 57.678 189.062 55.848 197.036 53.375 C 206.15 51.218 213.773 50.593 221.227 49.809 C 229.963 49.536 236.992 49.368 244.03 49.368 C 253.169 49.368 260.562 49.815 267.989 49.871 C 276.074 50.399 282.578 50.116 289.001 50.116 C 296.111 50.116 301.179 49.876 306.328 51.051 C 312.414 52.244 317.071 54.134 321.766 55.709 C 329.269 58.413 334.316 60.328 339.356 63.144 C 346.483 66.693 352.542 68.783 358.746 70.377 C 368.123 73.831 372.894 79.092 379.158 83.782 C 385.318 87.084 388.665 89.608 392.492 91.959 C 396.634 95.47 400 97.84 403 100.937 C 406.745 104.661 409.784 107.63 412.585 110.727 C 415.787 115.009 417.962 118.682 420.553 122.121 C 424.222 126.979 426.514 130.568 428.765 134.496 C 432.314 139.71 435.213 143.422 437.347 147.993 C 440.177 154.71 442.658 160.093 444.224 165.635 C 445.655 172.227 447.325 177.254 448.94 182.487 C 451.199 188.977 452.759 193.78 455.069 197.882 C 457.11 201.416 458.845 204.283 460.002 207.356 C 461.612 212.129 462.716 215.877 463.728 219.661 L 463.964 220.584 C 464.427 222.299 464.91 223.99 465.368 225.704" style="fill: none;"/>
    <path id="path-5" d="M 56.159 342.036 C 56.898 347.872 58.003 350.248 58.539 352.774 C 59.657 355.601 60.193 358.367 61.896 360.381 C 63.645 363.646 66.05 366.161 67.731 368.96 C 69.903 372.641 71.471 375.406 73.305 377.956 C 76.241 381.002 79.004 383.234 81.096 386.121 C 83.352 389.251 85.759 391.431 86.851 394.047 C 89.378 397.478 91.865 399.745 94.67 402.148 C 97.802 405.059 99.48 407.858 101.513 410.487 C 104.661 414.131 107.672 416.117 110.785 418.14 C 114.042 419.799 116.626 422.108 119.052 423.948 C 122.106 426.449 124.975 427.951 127.922 429.531 C 132.173 431.973 135.774 433.966 139.365 435.927 C 145.036 438.571 149.774 440.302 154.508 442.069 C 159.522 443.83 163.867 445.983 168.204 447.036 C 172.772 448.324 175.727 450.308 178.756 451.453 C 183.465 452.728 186.659 452.95 190.591 453.978 C 196.37 455.218 201.528 454.888 205.793 457.013 C 212.365 459.713 218.243 459.098 224.18 459.527 C 234.448 459.527 240.517 471.817 249.11 471.817 C 257.087 471.817 263.554 466.037 268.538 467.296 C 273.844 467.999 278.944 461.259 283.488 461.259 C 290.226 461.259 295.283 461.259 300.34 461.259 C 303.909 460.267 302.925 458.623 303.176 456.262 C 303.201 456.029 316.234 456.262 317.259 456.262 C 329.324 455.641 338.546 453.587 347.307 451.675 C 354.859 449.295 360.264 446.891 365.216 443.077 C 369.754 438.984 373.731 435.863 377.318 432.024 C 382.517 426.812 386.357 423.163 390.294 419.597 C 396.843 412.94 401.733 407.628 406.468 402.249 C 412.804 395.349 417.686 390.865 422.083 385.882 C 426.484 381.024 429.282 376.792 432.665 373.176 C 436.173 369.36 438.118 365.509 439.98 361.785 L 440.588 360.571 C 443.672 353.806 446.285 346.887 449.127 340.009" style="fill: none;"/>
  </defs>
  <ellipse style="stroke: rgb(181, 28, 74); stroke-width: 7px; fill: rgb(255, 255, 255);" cx="250" cy="250" rx="240.29" ry="240.29"/>
  <ellipse style="fill: rgb(156, 194, 51);" cx="250" cy="250" rx="187.331" ry="187.331"/>
  <g data-name="1" id="_1" transform="matrix(0.580132, 0, 0, 0.580132, 102.000908, 105.523987)" style="">
    <path d="M348.73,450.06a198.63,198.63,0,0,1-46.4-5.85c-52.43-12.65-106.42-44.74-152-90.36s-77.71-99.62-90.36-152C46.65,146.75,56.15,99.61,86.69,69.07l8.72-8.72a42.2,42.2,0,0,1,59.62,0l50.11,50.1a42.18,42.18,0,0,1,0,59.62l-29.6,29.59c14.19,24.9,33.49,49.82,56.3,72.63s47.75,42.12,72.64,56.31L334.07,299a42.15,42.15,0,0,1,59.62,0l50.1,50.1a42.16,42.16,0,0,1,0,59.61l-8.73,8.72C413.53,439,383.73,450.06,348.73,450.06ZM125.22,78a12,12,0,0,0-8.59,3.56l-8.73,8.72c-22.87,22.87-29.55,60-18.81,104.49,11.37,47.13,40.64,96.1,82.41,137.86s90.73,71,137.87,82.41c44.5,10.74,81.61,4.06,104.48-18.81l8.72-8.72a12.16,12.16,0,0,0,0-17.19l-50.09-50.1a12.16,12.16,0,0,0-17.19,0l-37.51,37.51a15,15,0,0,1-17.5,2.72c-30.75-15.9-61.75-39.05-89.65-66.95s-51-58.88-66.94-89.63a15,15,0,0,1,2.71-17.5l37.52-37.51a12.16,12.16,0,0,0,0-17.19l-50.1-50.11A12.07,12.07,0,0,0,125.22,78Z" style="fill: rgb(255, 255, 255);"/>
    <path d="M364.75,269.73a15,15,0,0,1-15-15,99.37,99.37,0,0,0-99.25-99.26,15,15,0,0,1,0-30c71.27,0,129.25,58,129.25,129.26A15,15,0,0,1,364.75,269.73Z" style="fill: rgb(255, 255, 255);"/>
    <path d="M428.15,269.73a15,15,0,0,1-15-15c0-89.69-73-162.66-162.65-162.66a15,15,0,0,1,0-30c106.23,0,192.65,86.43,192.65,192.66A15,15,0,0,1,428.15,269.73Z" style="fill: rgb(255, 255, 255);"/>
  </g>

</svg>