<svg height="512" viewBox="0 0 512 512" width="512" xmlns="http://www.w3.org/2000/svg"><g id="BULINE"><circle cx="256" cy="256" fill="#27273d" r="256"/></g><g id="Icons"><path d="m494.94 262a80.49 80.49 0 0 1 -80.49 80.49h-315.12a80.49 80.49 0 0 1 -11.82-160.1q-.3-4-.3-8a107.54 107.54 0 0 1 207-40.79 80.47 80.47 0 0 1 101.81 50.08 80.46 80.46 0 0 1 98.92 78.32z" fill="#fff"/><path d="m318 275v-26.48c0-2-.06-4-.19-5.93a95 95 0 0 0 -189.73 0c-.12 2-.19 3.93-.19 5.93v26.48h-1.27a14.86 14.86 0 0 0 -14.86 14.86v52.64h220.72v-52.68a14.86 14.86 0 0 0 -14.48-14.82zm-31.84 0h-126.47v-26.48c0-2 .1-4 .28-5.93a63.22 63.22 0 0 1 125.88 0q.27 2.92.27 5.93z" fill="#bee6fc"/><path d="m249.05 81.54a107.63 107.63 0 0 0 -132.87 104.52c0 2.71.11 5.38.3 8a80.5 80.5 0 0 0 -32.21 147 80.51 80.51 0 0 1 3.23-158.68c-.19-2.65-.3-5.32-.3-8a107.56 107.56 0 0 1 161.85-92.84z" fill="#bee6fc"/><path d="m347.68 251.67v26.44a15.92 15.92 0 0 1 -31.84 0v-26.44c0-2-.1-4-.28-5.94a63.22 63.22 0 0 0 -125.88 0q-.27 2.94-.27 5.94v26.44a15.92 15.92 0 1 1 -31.84 0v-26.44c0-2 .06-4 .19-5.94a95.05 95.05 0 0 1 189.73 0c.12 1.97.19 3.94.19 5.94z" fill="#32314b"/><rect fill="#db1b1b" height="165.57" rx="14.86" width="220.76" x="141.43" y="278.11"/><path d="m362.2 427.41v1.41a14.86 14.86 0 0 1 -14.86 14.86h-191a14.86 14.86 0 0 1 -14.86-14.86v-135.82a14.86 14.86 0 0 1 14.86-14.85h2.13v134.4a14.86 14.86 0 0 0 14.85 14.86z" fill="#c61c1c"/><path d="m281.53 340.73a29.72 29.72 0 1 0 -51.93 19.73 12.51 12.51 0 0 1 3.14 9.27l-3.38 45.36a7.84 7.84 0 0 0 7.82 8.42h29.27a7.84 7.84 0 0 0 7.82-8.42l-3.38-45.36a12.47 12.47 0 0 1 3.11-9.24 29.55 29.55 0 0 0 7.53-19.76z" fill="#a01717"/><path d="m249.21 423.51h-12a7.83 7.83 0 0 1 -7.81-8.42l3.38-45.36a12.51 12.51 0 0 0 -3.15-9.27 29.73 29.73 0 0 1 28.25-48.84 29.71 29.71 0 0 0 -16.21 48.84 12.51 12.51 0 0 1 3.14 9.27l-3.38 45.36a7.84 7.84 0 0 0 7.78 8.42z" fill="#8e1616"/><circle cx="336.02" cy="336.66" fill="#e23b3b" r="14.07"/><circle cx="336.02" cy="307.35" fill="#e23b3b" r="9.97"/><g fill="#27273d"><path d="m189.68 245.73q-.27 2.94-.27 5.94v26.44h-31.84v-26.44c0-2 .06-4 .19-5.94z"/><path d="m347.68 251.67v26.44h-31.84v-26.44c0-2-.1-4-.28-5.94h31.93c.12 1.97.19 3.94.19 5.94z"/></g></g></svg>