<svg width="16" height="16" viewBox="0 0 16 16" fill="none" xmlns="http://www.w3.org/2000/svg">
    <path d="M15.689 3.66074L12.8635 0.835223C12.6798 0.651565 12.3813 0.651565 12.1976 0.835223L9.37209 3.66074C9.2374 3.79637 9.1969 3.99792 9.26943 4.17404C9.34195 4.35017 9.5143 4.46507 9.70455 4.46507H11.1173V5.77423C11.1173 6.25362 10.8828 6.6944 10.4891 6.95529L8.76837 8.10245C8.60731 8.20794 8.44908 8.33038 8.2918 8.4726C8.13451 8.33038 7.97722 8.20888 7.81805 8.10434L6.0926 6.95435C5.7008 6.6944 5.46628 6.25362 5.46628 5.77423V4.46507H6.87904C7.06929 4.46507 7.24165 4.35017 7.31417 4.17404C7.38669 3.99792 7.34619 3.79637 7.21245 3.66074L4.38693 0.835223C4.20327 0.651565 3.90471 0.651565 3.72105 0.835223L0.895534 3.66074C0.760851 3.79637 0.720352 3.99792 0.792874 4.17404C0.865395 4.35017 1.03775 4.46507 1.228 4.46507H2.64076V5.77423C2.64076 7.1964 3.3462 8.51498 4.52727 9.30236L6.25272 10.4523C6.64452 10.7123 6.87904 11.1531 6.87904 11.6325V15.2962C6.87904 15.5562 7.09001 15.7671 7.34996 15.7671H9.23363C9.49358 15.7671 9.70455 15.5562 9.70455 15.2962V11.6325C9.70455 11.1531 9.93907 10.7123 10.3328 10.4514L12.0563 9.30236C13.2374 8.51498 13.9428 7.1964 13.9428 5.77423V4.46507H15.3556C15.5458 4.46507 15.7182 4.35017 15.7907 4.17404C15.8632 3.99792 15.8227 3.79637 15.689 3.66074Z" fill="#FEFEFF"/>
</svg>
