<svg height="512" viewBox="0 0 51 58" width="512" xmlns="http://www.w3.org/2000/svg"><g id="Page-1" fill="none" fill-rule="evenodd"><g id="007---Stopwatch" fill-rule="nonzero" transform="translate(-1)"><path id="Shape" d="m49 34c.0009444 12.8651853-10.1425611 23.442845-22.9964954 23.980773s-23.84575919-9.1552331-24.91973322-21.9755129c-1.07397404-12.8202798 8.15194827-24.2071119 20.91622862-25.8152601 1.9919776-.25333559 4.0080224-.25333559 6 0 4.6116625.5763113 8.9554178 2.4840887 12.5 5.49 1.0182992.8582964 1.9617036 1.8017008 2.82 2.82 3.6737455 4.3283177 5.6872045 9.8227922 5.68 15.5z" fill="#3b97d3"/><path id="Shape" d="m44 34c.0015425 9.5380406-7.0686213 17.5989936-16.5254204 18.8412377s-18.36895318-4.7192733-20.83078923-13.93413c-2.46183605-9.2148566 2.28972985-18.826766 11.10605443-22.4663595 8.8163246-3.6395936 18.9646524-.1787234 23.7201552 8.0892518 1.6563584 2.8813557 2.5286693 6.146488 2.53 9.47z" fill="#ecf0f1"/><path id="Shape" d="m44 34c-.0006306 6.7815462-3.615719 13.048646-9.4857764 16.4444958-5.8700574 3.3958499-13.1050632 3.4055697-18.9842236.0255042-4.2769969-7.4435938-3.0312857-16.8304627 3.0391258-22.9008742s15.4572804-7.3161227 22.9008742-3.0391258c1.6625334 2.8788038 2.5352943 6.1456203 2.53 9.47z" fill="#fff"/><path id="Shape" d="m28 5v5.19c-1.9919776-.25333559-4.0080224-.25333559-6 0v-5.19z" fill="#2980ba"/><path id="Shape" d="m32 2.5c.0021341.66369315-.2605727 1.30081863-.729877 1.77012298-.4693044.46930436-1.1064298.7320111-1.770123.72987702h-9c-1.3807119 0-2.5-1.11928813-2.5-2.5s1.1192881-2.5 2.5-2.5h9c1.3807119 0 2.5 1.11928813 2.5 2.5z" fill="#3b97d3"/><path id="Shape" d="m47 14.82-3.68 3.68c-.8582964-1.0182992-1.8017008-1.9617036-2.82-2.82l3.68-3.68z" fill="#7f8284"/><path id="Shape" d="m51.41 16.41c-.3720993.3774338-.8799866.5899281-1.41.5899281s-1.0379007-.2124943-1.41-.5899281l-1.59-1.59-2.82-2.82-1.59-1.59c-.7787215-.7787215-.7787215-2.0412785 0-2.82s2.0412785-.7787215 2.82 0l6 6c.3789438.3712876.5924878.8794787.5924878 1.41s-.213544 1.0387124-.5924878 1.41z" fill="#cc4b4c"/><path id="Shape" d="m25 19.007c7.8530523.0048699 14.3751162 6.0617572 14.96 13.893.0236331.2810015-.0707006.5591689-.26039.7678272-.1896894.2086584-.4576343.3289975-.73961.3321728h-13.96z" fill="#ff5364"/><path id="Shape" d="m22.47 32.38 1.02-13.3c.0576415-.7913909.7165127-1.4040182 1.51-1.4040182s1.4523585.6126273 1.51 1.4040182l1.02 13.3z" fill="#bdc3c7"/><path id="Shape" d="m25 54c-11.045695 0-20-8.954305-20-20s8.954305-20 20-20 20 8.954305 20 20c-.0126747 11.0404407-8.9595593 19.9873253-20 20zm0-38c-9.9411255 0-18 8.0588745-18 18s8.0588745 18 18 18 18-8.0588745 18-18c-.0115721-9.9363282-8.0636718-17.9884279-18-18z" fill="#bdc3c7"/><path id="Shape" d="m28 34c0 1.6568542-1.3431458 3-3 3s-3-1.3431458-3-3c-.0024053-.570837.160861-1.1301107.47-1.61v-.01c.5538487-.8602571 1.5068721-1.3801412 2.53-1.3801412s1.9761513.5198841 2.53 1.3801412c.304805.4855453.4676138 1.0467159.47 1.62z" fill="#7f8284"/></g></g></svg>