<svg fill="white" width="62" height="62" xmlns="http://www.w3.org/2000/svg" version="1.1">

 <g>
  <title>Layer 1</title>
  <path fill-opacity="0" fill="#000000" fill-rule="nonzero" id="path10273" d="m57.5,0l-53.1,0c-2.4,0 -4.4,2 -4.4,4.4l0,52.8c0,2.4 2,4.4 4.4,4.4l53.1,0c2.4,0 4.4,-2 4.4,-4.4l0,-52.8c0,-2.5 -2,-4.4 -4.4,-4.4zm-18.7,46.3c-5.4,5.4 -14,5.6 -19.7,0.7l-0.1,-0.1c-0.3,-0.3 -0.4,-0.9 0,-1.3l19.2,-19.1c0.4,-0.3 0.9,-0.3 1.3,0c5,5.8 4.8,14.4 -0.7,19.8zm4,-30.5l-19.2,19.1c-0.4,0.3 -0.9,0.3 -1.3,0c-5,-5.7 -4.8,-14.3 0.6,-19.7c5.4,-5.4 14,-5.6 19.7,-0.7c0,0 0.1,0 0.1,0.1c0.5,0.3 0.5,0.9 0.1,1.2z"/>
 </g>
</svg>
