<?xml version="1.0" encoding="utf-8"?>
<svg viewBox="0 0 116 112" width="116px" height="112px" xmlns="http://www.w3.org/2000/svg">
  <g transform="matrix(0.124406, 0, 0, -0.124406, -17.742754, 128.500473)" fill="#000000" stroke="none">
    <path d="M489 956 c-65 -17 -128 -57 -181 -114 -57 -60 -83 -110 -99 -188 -17 -85 -11 -96 53 -92 l52 3 11 55 c29 148 143 238 288 228 71 -5 116 -24 172 -73 37 -31 39 -36 27 -56 -8 -12 -10 -25 -5 -29 11 -11 173 -43 180 -36 8 7 -16 156 -29 179 -9 18 -11 18 -29 1 -18 -16 -21 -15 -67 28 -27 25 -64 54 -83 63 -83 43 -199 56 -290 31z m202 -32 c64 -19 131 -59 178 -108 22 -23 41 -34 52 -31 12 4 18 -2 23 -26 13 -65 10 -71 -31 -64 -61 10 -67 13 -54 29 18 21 -94 119 -160 141 -68 23 -188 17 -244 -12 -74 -39 -137 -120 -159 -205 -9 -36 -19 -54 -31 -56 -31 -7 -36 12 -20 73 51 196 255 315 446 259z"/>
    <path d="M580 717 c0 -7 -13 -23 -30 -35 -21 -16 -30 -31 -30 -51 0 -33 19 -52 68 -66 43 -13 61 -37 43 -59 -20 -24 -58 -20 -77 9 -18 28 -44 33 -44 10 0 -18 43 -65 60 -65 5 0 10 -6 10 -14 0 -24 21 -30 27 -7 3 11 14 23 24 26 11 4 27 17 35 31 26 38 3 81 -50 96 -56 15 -73 32 -56 52 20 25 56 19 78 -11 19 -26 21 -26 28 -9 9 23 -5 48 -34 61 -12 5 -22 18 -22 27 0 10 -7 18 -15 18 -8 0 -15 -6 -15 -13z"/>
    <path d="M870 561 c0 -60 -38 -138 -92 -186 -113 -101 -275 -98 -376 8 -30 31 -32 37 -21 55 7 12 11 24 8 27 -9 9 -180 38 -186 31 -3 -3 0 -45 7 -92 14 -88 27 -107 55 -84 12 10 23 6 59 -28 126 -116 291 -141 442 -67 122 60 212 186 217 306 l2 54 -57 3 -58 3 0 -30z m82 -7 c11 -10 -19 -111 -44 -155 -78 -132 -229 -204 -372 -178 -77 14 -139 45 -204 104 -30 27 -58 45 -66 42 -11 -4 -17 7 -25 41 -5 26 -8 48 -6 51 2 2 25 0 50 -4 35 -5 45 -10 41 -21 -8 -21 64 -95 126 -130 48 -26 62 -29 143 -29 74 0 97 4 132 23 93 49 154 130 169 221 5 34 11 41 29 41 12 0 24 -3 27 -6z"/>
  </g>
</svg>