<?xml version="1.0" standalone="no"?>
<!DOCTYPE svg PUBLIC "-//W3C//DTD SVG 20010904//EN"
 "http://www.w3.org/TR/2001/REC-SVG-20010904/DTD/svg10.dtd">
<svg version="1.0" xmlns="http://www.w3.org/2000/svg"
 width="135px" height="128px" viewBox="0 0 135.000000 128.000000"
 preserveAspectRatio="xMidYMid meet">

<g transform="translate(0.000000,128.000000) scale(0.100000,-0.100000)"
fill="#000000" stroke="none">
<path d="M423 1076 c-100 -32 -187 -108 -240 -208 -26 -49 -28 -62 -28 -163 0
-107 1 -112 34 -170 53 -94 79 -123 145 -160 89 -49 160 -65 300 -65 l120 0
75 -52 c42 -28 93 -65 114 -81 61 -48 70 -36 64 92 l-6 109 56 56 c30 32 67
83 81 114 24 50 27 69 26 157 0 86 -4 108 -27 158 -34 74 -119 160 -194 195
-57 26 -63 27 -268 29 -154 2 -221 -1 -252 -11z m512 -57 c72 -38 147 -122
174 -194 19 -50 22 -74 18 -140 -5 -103 -36 -174 -103 -235 l-49 -45 -5 -98
-5 -99 -75 54 c-129 91 -110 85 -285 90 -191 5 -234 19 -313 102 -64 66 -85
105 -101 181 -36 171 74 350 249 406 14 4 120 7 235 6 206 -2 211 -3 260 -28z"/>
<path d="M464 716 c-8 -32 2 -46 31 -46 18 0 26 7 31 24 8 32 -2 46 -31 46
-18 0 -26 -7 -31 -24z"/>
<path d="M632 728 c-21 -21 -14 -47 14 -54 34 -9 64 18 48 44 -14 21 -45 27
-62 10z"/>
<path d="M789 719 c-9 -18 -7 -25 10 -43 17 -16 25 -18 39 -10 9 6 19 21 20
34 6 41 -49 56 -69 19z"/>
</g>
</svg>
