<?xml version="1.0" standalone="no"?>
<!DOCTYPE svg PUBLIC "-//W3C//DTD SVG 20010904//EN"
 "http://www.w3.org/TR/2001/REC-SVG-20010904/DTD/svg10.dtd">
<svg version="1.0" xmlns="http://www.w3.org/2000/svg"
 width="561px" height="690px" viewBox="0 0 561.000000 690.000000"
 preserveAspectRatio="xMidYMid meet">

<g transform="translate(0.000000,690.000000) scale(0.100000,-0.100000)"
fill="#000000" stroke="none">
<path d="M930 6442 c-21 -11 -44 -35 -57 -62 l-23 -43 3 -2957 2 -2956 25 -37
c62 -92 184 -89 254 6 l21 28 0 2967 c0 2860 -1 2968 -18 2997 -29 46 -65 68
-121 72 -37 3 -61 -1 -86 -15z"/>
<path d="M4233 6249 c-255 -19 -461 -79 -1043 -302 -525 -201 -746 -256 -1027
-257 -154 0 -253 12 -372 46 -105 30 -272 110 -367 175 -39 27 -73 49 -77 49
-4 0 -7 -204 -7 -454 l0 -455 90 -60 c181 -121 365 -189 588 -216 l52 -7 0
-364 0 -364 70 0 c151 0 399 40 570 93 l75 23 5 362 c3 199 2 362 -2 362 -4 0
-54 -13 -110 -29 -165 -47 -312 -72 -465 -78 l-143 -6 0 365 0 365 118 2 c64
0 142 5 172 11 164 28 225 41 319 69 57 17 106 29 111 26 4 -2 7 -162 8 -356
0 -193 3 -353 5 -355 4 -5 158 48 314 107 153 58 286 109 308 119 11 5 37 14
57 21 l38 13 2 365 3 364 115 39 c210 71 497 138 593 138 16 0 17 -24 17 -360
l0 -360 83 0 c117 0 247 -17 353 -45 100 -26 273 -97 286 -117 12 -19 9 -718
-3 -718 -5 0 -35 13 -67 29 -142 72 -306 110 -504 118 l-148 6 0 -367 c0 -286
-3 -366 -12 -366 -35 0 -215 -32 -308 -54 -105 -24 -257 -71 -357 -108 l-53
-19 0 -362 0 -362 -232 -90 c-276 -105 -468 -175 -486 -175 -10 0 -12 74 -12
356 1 196 0 358 -2 359 -2 2 -46 -9 -98 -25 -174 -51 -452 -96 -563 -90 -18 1
-38 2 -44 1 -10 -1 -13 -80 -13 -361 l0 -360 -24 0 c-54 0 -208 33 -306 66
-108 36 -212 88 -312 156 -93 62 -89 64 -86 -43 l3 -94 69 -47 c227 -156 461
-228 741 -228 290 0 524 60 1110 285 572 220 804 279 1095 278 213 -1 388 -42
572 -134 43 -22 92 -39 110 -39 49 0 105 42 117 88 6 23 10 594 11 1539 1
1293 -1 1507 -14 1537 -18 42 -79 88 -206 155 -223 116 -451 161 -717 140z
m340 -2383 c112 -18 231 -56 327 -104 l75 -37 2 -350 c1 -192 0 -355 -2 -362
-3 -8 -31 0 -87 27 -169 79 -307 109 -511 114 l-129 3 1 239 c0 132 1 294 1
362 l0 122 118 0 c64 0 157 -7 205 -14z"/>
<path d="M4070 5310 c-132 -25 -305 -71 -435 -117 l-110 -39 -3 -362 c-1 -199
-1 -362 0 -362 2 0 57 18 123 41 152 51 356 104 460 118 44 6 95 14 113 17
l32 5 0 359 0 360 -42 -1 c-24 0 -86 -9 -138 -19z"/>
<path d="M3250 4325 c-135 -52 -292 -111 -350 -131 l-105 -37 0 -358 c0 -299
2 -359 14 -359 21 0 382 133 699 257 18 7 18 723 0 722 -7 0 -123 -43 -258
-94z"/>
<path d="M1340 3961 l0 -359 38 -29 c86 -67 241 -150 341 -184 78 -27 205 -56
283 -64 l67 -7 1 360 c0 398 5 372 -66 372 -92 0 -289 58 -419 122 -81 41
-210 122 -221 139 -20 33 -24 -21 -24 -350z"/>
</g>
</svg>
