<?xml version="1.0" standalone="no"?>
<!DOCTYPE svg PUBLIC "-//W3C//DTD SVG 20010904//EN"
 "http://www.w3.org/TR/2001/REC-SVG-20010904/DTD/svg10.dtd">
<svg version="1.0" xmlns="http://www.w3.org/2000/svg"
 width="661px" height="493px" viewBox="0 0 661.000000 493.000000"
 preserveAspectRatio="xMidYMid meet">

<g transform="translate(0.000000,493.000000) scale(0.100000,-0.100000)"
fill="#000000" stroke="none">
<path d="M584 4454 c-62 -32 -100 -68 -127 -119 l-22 -40 0 -1820 c0 -1467 3
-1828 13 -1863 17 -57 75 -120 137 -148 l50 -24 2637 0 c2612 0 2638 0 2691
20 56 21 98 59 138 125 l24 40 0 1835 c0 1770 -1 1836 -19 1870 -30 58 -87
109 -143 130 -53 20 -81 20 -2692 20 l-2638 0 -49 -26z m5356 -117 c19 -12 42
-36 52 -53 17 -30 18 -110 18 -1810 0 -1255 -3 -1791 -11 -1818 -6 -22 -25
-52 -41 -68 l-30 -28 -967 -2 c-531 -1 -1717 0 -2636 1 -1363 2 -1676 5 -1702
16 -17 7 -40 28 -50 47 -17 32 -18 113 -18 1838 0 1724 1 1807 18 1833 10 16
32 37 50 47 32 20 73 20 2658 20 l2626 0 33 -23z"/>
<path d="M1945 4026 c-165 -28 -287 -70 -421 -147 -319 -183 -543 -515 -593
-882 -25 -179 -9 -243 69 -285 50 -26 101 -25 150 5 45 26 60 63 70 180 19
203 80 357 199 506 81 101 170 173 281 231 256 131 525 142 784 30 l86 -36 96
78 c52 44 105 86 117 96 29 23 17 34 -100 95 -179 93 -333 133 -533 138 -75 3
-157 -1 -205 -9z"/>
<path d="M3160 3953 c-30 -25 -152 -125 -270 -222 -764 -628 -918 -756 -942
-784 -84 -100 -50 -256 69 -312 45 -22 132 -21 180 1 41 20 60 43 203 239 63
86 154 210 201 274 138 186 257 348 364 496 55 75 135 185 178 243 43 57 76
106 75 108 -2 1 -28 -18 -58 -43z"/>
<path d="M4110 3921 c-14 -27 -13 -47 6 -65 14 -14 104 -16 838 -16 785 0 824
1 839 18 22 24 21 45 -1 65 -17 16 -90 17 -845 17 -807 0 -827 0 -837 -19z"/>
<path d="M2976 3449 l-89 -121 40 -81 c58 -117 82 -204 97 -345 14 -136 26
-164 87 -194 66 -34 136 -17 183 45 23 30 26 43 26 119 0 156 -48 355 -122
503 -39 76 -115 195 -126 195 -4 0 -48 -54 -96 -121z"/>
<path d="M4116 3554 c-21 -21 -20 -47 2 -67 17 -16 90 -17 839 -17 782 0 821
1 836 18 21 23 22 46 1 66 -14 14 -104 16 -839 16 -735 0 -825 -2 -839 -16z"/>
<path d="M4110 3181 c-14 -27 -13 -47 6 -65 14 -14 104 -16 838 -16 785 0 824
1 839 18 21 23 22 46 1 66 -14 14 -104 16 -844 16 -810 0 -830 0 -840 -19z"/>
<path d="M4110 2811 c-14 -27 -13 -47 4 -64 12 -11 145 -14 837 -15 751 -2
824 0 841 15 22 20 23 46 2 67 -14 14 -104 16 -844 16 -810 0 -830 0 -840 -19z"/>
<path d="M5260 1490 l0 -560 -105 0 -105 0 0 155 0 155 -172 -2 -173 -3 0
-152 0 -153 -102 0 -103 0 0 460 0 460 -175 0 -175 0 0 -460 0 -460 -100 0
-100 0 0 245 0 245 -175 0 -175 0 0 -245 0 -245 -100 0 -100 0 0 -60 0 -60
1205 0 1205 0 0 60 0 60 -105 0 -105 0 0 560 0 560 -170 0 -170 0 0 -560z"/>
<path d="M913 1958 c-35 -25 -63 -75 -63 -114 0 -100 113 -172 200 -127 133
69 88 263 -61 263 -30 0 -55 -7 -76 -22z"/>
<path d="M1275 1895 c-30 -30 -32 -64 -4 -99 l20 -26 774 0 c722 0 774 1 794
18 33 26 31 79 -3 109 l-27 23 -765 0 -765 0 -24 -25z"/>
<path d="M934 1520 c-27 -11 -72 -65 -80 -96 -16 -64 28 -143 92 -164 118 -39
222 82 168 196 -29 61 -113 91 -180 64z"/>
<path d="M1293 1460 c-46 -19 -57 -83 -19 -119 l23 -22 769 1 c860 0 814 -3
814 69 0 26 -7 44 -21 57 -20 18 -49 19 -783 21 -426 1 -771 -2 -783 -7z"/>
<path d="M922 1061 c-66 -42 -88 -114 -54 -180 50 -99 177 -105 239 -12 39 57
27 126 -31 180 -36 34 -110 39 -154 12z"/>
<path d="M1300 1013 c-21 -8 -50 -45 -50 -65 0 -38 23 -68 61 -78 25 -7 300
-10 783 -8 741 3 746 3 766 24 29 28 29 79 1 107 l-22 22 -762 2 c-419 1 -769
-1 -777 -4z"/>
</g>
</svg>
