<?xml version="1.0" standalone="no"?>
<!DOCTYPE svg PUBLIC "-//W3C//DTD SVG 20010904//EN"
 "http://www.w3.org/TR/2001/REC-SVG-20010904/DTD/svg10.dtd">
<svg version="1.0" xmlns="http://www.w3.org/2000/svg"
 width="417px" height="388px" viewBox="0 0 417 388"
 preserveAspectRatio="xMidYMid meet">

<g transform="translate(0.000000,388.000000) scale(0.100000,-0.100000)"
fill="#000000" stroke="none">
<path d="M227 3770 c-41 -12 -94 -56 -115 -93 -16 -30 -17 -123 -17 -1537 0
-828 3 -1517 8 -1533 12 -42 74 -105 115 -117 41 -11 2012 -15 2012 -3 0 3
-12 39 -28 79 l-27 74 -952 0 c-523 0 -954 4 -957 8 -7 11 -9 436 -7 1450 l1
842 1755 0 1755 0 1 -557 1 -558 79 -63 79 -63 0 967 c0 966 0 968 -21 1012
-13 26 -38 54 -62 70 l-41 27 -1775 2 c-977 1 -1789 -2 -1804 -7z m503 -430
c0 -195 -1 -210 -18 -210 -29 0 -267 187 -267 210 0 23 238 210 267 210 17 0
18 -15 18 -210z m346 143 c50 -38 106 -79 127 -93 47 -32 48 -60 5 -94 -144
-111 -224 -166 -238 -164 -13 3 -15 32 -18 198 -1 107 0 200 2 207 9 24 32 13
122 -54z"/>
<path d="M3353 2699 c-17 -5 -43 -23 -57 -40 -25 -30 -28 -40 -30 -105 -1 -24
-18 -49 -78 -112 -68 -73 -80 -82 -112 -82 -20 0 -45 -5 -55 -12 -15 -9 -42
-3 -147 33 -76 25 -134 51 -143 63 -48 61 -72 76 -122 76 -42 0 -55 -5 -85
-33 -29 -27 -37 -42 -41 -82 -6 -46 -14 -59 -100 -157 -90 -102 -95 -106 -127
-101 -21 3 -47 -1 -69 -12 -95 -45 -99 -177 -6 -227 42 -22 71 -23 116 -2 46
22 67 57 69 115 2 45 8 54 94 151 l91 103 50 -3 c41 -3 55 1 84 22 l34 26 113
-38 c113 -40 119 -43 134 -97 13 -41 67 -75 121 -75 35 0 50 6 81 34 35 32 37
38 37 94 0 59 1 60 69 136 64 71 70 76 109 76 54 0 86 17 114 59 45 67 18 155
-57 185 -45 18 -43 18 -87 5z"/>
<path d="M1140 1740 l0 -660 140 0 140 0 0 660 0 660 -140 0 -140 0 0 -660z"/>
<path d="M1647 2054 c-4 -4 -7 -225 -7 -491 l0 -483 145 0 145 0 -2 488 -3
487 -136 3 c-74 1 -138 -1 -142 -4z"/>
<path d="M773 1862 l-133 -3 0 -389 0 -389 93 -3 c50 -2 112 -1 137 2 l45 5 3
384 c2 211 -1 387 -5 390 -4 3 -68 5 -140 3z"/>
<path d="M2976 1823 c-161 -34 -295 -110 -421 -238 -106 -107 -171 -211 -214
-340 -78 -235 -64 -464 43 -680 47 -95 143 -226 162 -222 9 2 268 304 379 442
17 20 35 42 40 49 6 6 36 41 67 77 69 82 66 57 67 552 l2 377 -28 -1 c-15 0
-59 -7 -97 -16z"/>
<path d="M3262 1433 l3 -408 50 -8 c49 -7 124 -20 215 -37 191 -36 502 -90
514 -90 24 0 28 37 17 145 -11 101 -52 249 -92 328 -88 172 -262 334 -440 409
-75 31 -207 68 -246 68 l-23 0 2 -407z"/>
<path d="M2948 553 c-145 -172 -263 -319 -263 -326 0 -19 118 -82 207 -110
112 -35 186 -47 288 -47 306 0 581 152 749 416 55 85 110 220 95 233 -8 7
-199 44 -289 56 -16 2 -70 11 -120 20 -49 9 -126 22 -170 30 -44 8 -115 20
-157 28 l-78 14 -262 -314z"/>
</g>
</svg>
