<?xml version="1.0" encoding="utf-8"?>
<svg viewBox="0 0 80 80" width="80px" height="80px" xmlns="http://www.w3.org/2000/svg">
  <path d="M 61.037 49.104 L 51.918 46.904 C 50.363 46.529 47.756 45.574 47.756 43.382 L 47.756 39.731 C 49.418 38.307 50.77 36.337 51.777 33.869 C 52.3 32.586 52.756 31.232 53.132 29.837 C 54.37 29.224 55.179 27.855 55.179 26.31 C 55.179 25.35 54.857 24.424 54.286 23.717 C 54.302 23.598 54.315 23.497 54.329 23.396 C 56.405 16.512 54.77 8.065 45.378 7.897 L 45.036 7.647 C 38.797 3.155 30.294 5.772 26.427 11.779 C 25.838 12.569 25.451 13.397 25.186 14.252 C 24.328 16.537 24.082 19.145 24.724 21.945 L 24.862 22.294 C 24.847 22.544 24.793 22.899 24.676 23.56 C 24.021 24.284 23.649 25.272 23.649 26.31 C 23.649 27.925 24.54 29.347 25.859 29.913 C 26.178 31.146 26.546 32.426 26.975 33.812 C 27.747 36.299 29.139 38.392 31.009 39.887 L 31.009 43.481 C 31.009 45.672 28.402 46.628 26.848 47.002 L 17.729 49.203 C 13.762 50.16 11.096 53.271 11.096 56.945 L 11.096 70.396 L 11.642 70.525 C 20.487 72.615 29.82 73.675 39.382 73.675 C 48.944 73.675 58.278 72.614 67.122 70.525 L 67.667 70.396 L 67.667 56.846 C 67.668 53.172 65.004 50.06 61.037 49.104 Z M 39.348 43.324 C 41.961 43.324 44.236 42.233 46.338 40.78 L 46.338 43.382 C 46.338 43.887 46.442 44.358 46.611 44.804 L 41.519 47.152 L 37.458 47.152 L 32.21 44.732 C 32.341 44.336 32.428 43.922 32.428 43.481 L 32.428 40.919 C 34.996 42.64 37.277 43.324 39.348 43.324 Z M 39.111 69.336 L 36.433 66.658 L 38.264 52.595 L 40.459 52.595 L 42.289 66.658 L 39.611 69.336 L 39.111 69.336 Z M 48.016 46.832 L 45.715 52.33 L 42.369 50.698 L 42.369 48.32 L 47.221 46.084 L 48.016 46.832 Z M 40.951 48.568 L 40.951 50.881 L 40.734 51.1 L 37.763 51.1 L 37.545 50.881 L 37.545 48.568 L 40.951 48.568 Z M 36.128 50.986 L 33.32 52.355 L 31.017 46.857 L 31.814 46.109 L 36.127 48.097 L 36.127 50.986 Z M 54.697 60.127 L 54.697 57.189 L 56.238 57.189 L 56.238 60.127 L 54.697 60.127 Z M 53.988 59.117 L 50.215 59.117 L 50.215 61.215 L 60.721 61.215 L 60.721 59.117 L 56.948 59.117 L 56.948 58.431 L 61.374 58.431 L 61.374 65.738 L 49.565 65.738 L 49.565 58.431 L 53.989 58.431 L 53.989 59.117 Z M 28.33 33.39 C 27.865 31.89 27.476 30.518 27.14 29.197 L 27.039 28.8 L 26.644 28.689 C 25.73 28.434 25.068 27.433 25.068 26.309 C 25.068 25.568 25.345 24.874 25.831 24.405 L 25.995 24.246 L 26.035 24.02 C 26.124 23.522 26.183 23.161 26.224 22.867 C 29.198 17.838 39.635 20.232 43.41 13.113 C 50.879 16.801 51.599 24.575 52.617 27.362 C 52.98 26.743 53.31 26.082 53.603 25.394 C 53.703 25.683 53.761 25.991 53.761 26.31 C 53.761 27.385 53.159 28.349 52.3 28.654 L 51.945 28.78 L 51.851 29.144 C 51.472 30.597 51.007 32.006 50.464 33.334 C 49.505 35.686 48.218 37.525 46.642 38.809 C 42.107 42.287 38.089 43.517 32.168 38.991 L 32.144 38.973 C 30.371 37.644 29.052 35.715 28.33 33.39 Z"/>
</svg>