<?xml version="1.0" encoding="utf-8"?>
<svg viewBox="0 0 32 32" width="32px" height="32px" xmlns="http://www.w3.org/2000/svg">
  <path d="M29.5,5H2.5A2.5,2.5,0,0,0,0,7.5v17A2.5,2.5,0,0,0,2.5,27h27A2.5,2.5,0,0,0,32,24.5V7.5A2.5,2.5,0,0,0,29.5,5ZM31,24.5A1.5,1.5,0,0,1,29.5,26H2.5A1.5,1.5,0,0,1,1,24.5V7.5A1.5,1.5,0,0,1,2.5,6h27A1.5,1.5,0,0,1,31,7.5v17Z"/>
  <path d="M 2.152 25 L 28.198 25 L 28.198 7 L 2.152 7 L 2.152 25 Z M 3.335 8 L 27.014 8 L 27.014 24 L 3.335 24 L 3.335 8 Z" style=""/>
  <circle cx="29" cy="16" r="1" transform="matrix(1, 0, 0, 1, 0.587597, 0.002364)"/>
  <rect x="7.647" y="10.031" width="5.714" height="12.105" style="stroke: rgb(0, 0, 0); fill: none; paint-order: fill; stroke-linejoin: round;"/>
</svg>