<?xml version="1.0" standalone="no"?>
<!DOCTYPE svg PUBLIC "-//W3C//DTD SVG 20010904//EN"
 "http://www.w3.org/TR/2001/REC-SVG-20010904/DTD/svg10.dtd">
<svg version="1.0" xmlns="http://www.w3.org/2000/svg"
 width="88px" height="101px" viewBox="0 0 88.000000 101.000000"
 preserveAspectRatio="xMidYMid meet">

<g transform="translate(0.000000,101.000000) scale(0.100000,-0.100000)"
fill="#000000" stroke="none">
<path d="M145 878 c-3 -7 -4 -177 -3 -378 l3 -365 260 -3 c143 -1 270 0 283 3
21 5 22 10 22 95 0 65 -4 90 -12 91 -41 3 -120 0 -125 -5 -3 -3 -3 -12 0 -21
5 -10 20 -15 52 -15 l45 0 0 -50 0 -50 -244 0 -244 0 -1 329 -2 328 71 6 c39
3 149 3 246 0 l175 -6 -3 -46 -3 -46 -45 -5 c-31 -3 -45 -10 -45 -20 0 -12 14
-15 65 -15 l65 0 0 90 0 90 -278 3 c-217 2 -279 0 -282 -10z"/>
<path d="M435 680 c-9 -14 8 -40 59 -90 25 -24 46 -47 46 -51 0 -4 -51 -7
-112 -8 -62 -1 -117 -6 -122 -11 -22 -22 10 -30 127 -30 l121 0 -55 -57 c-63
-65 -78 -93 -51 -93 21 0 172 149 172 170 0 18 -150 180 -167 180 -6 0 -15 -4
-18 -10z"/>
</g>
</svg>
