<?xml version="1.0" encoding="utf-8"?>
<svg viewBox="0 0 60 60" width="60px" height="60px" xmlns="http://www.w3.org/2000/svg">
  <g data-name="Layer 2" transform="matrix(1.183333, 0, 0, 1.183333, -7.710105, -6.128889)">
    <path d="M0 0h60v60H0z" fill="none"/>
    <path d="M 46.27 33.335 L 46.22 33.335 L 48.14 11.455 C 48.249 10.165 47.29 9.031 46 8.925 L 18.55 6.525 C 17.261 6.409 16.121 7.357 16 8.645 L 15.75 11.555 L 13.55 11.555 C 12.279 11.555 11.242 12.574 11.22 13.845 L 11.22 51.275 C 11.22 52.562 12.263 53.605 13.55 53.605 L 17.55 53.605 C 17.938 54.551 18.857 55.171 19.88 55.175 L 46.27 55.175 C 47.654 55.17 48.775 54.049 48.78 52.665 L 48.78 35.845 C 48.775 34.461 47.654 33.341 46.27 33.335 Z M 18 8.845 C 18.016 8.662 18.178 8.528 18.36 8.545 L 45.82 10.945 C 46.003 10.961 46.137 11.123 46.12 11.305 L 44.21 33.335 L 43.45 33.335 L 43.45 13.845 C 43.45 12.558 42.407 11.515 41.12 11.515 L 17.78 11.515 L 18 8.845 Z M 17.32 40.415 L 17.32 51.605 L 13.55 51.605 C 13.368 51.605 13.22 51.457 13.22 51.275 L 13.22 13.845 C 13.22 13.663 13.368 13.515 13.55 13.515 L 41.12 13.515 C 41.302 13.515 41.45 13.663 41.45 13.845 L 41.45 33.335 L 36.74 33.335 C 35.831 33.336 34.949 33.646 34.24 34.215 L 30.19 37.435 C 29.833 37.722 29.388 37.877 28.93 37.875 L 19.85 37.875 C 18.464 37.875 17.34 38.999 17.34 40.385 L 17.32 40.415 Z M 46.78 52.665 C 46.78 52.947 46.552 53.175 46.27 53.175 L 19.85 53.175 C 19.568 53.175 19.34 52.947 19.34 52.665 L 19.34 40.385 C 19.34 40.103 19.568 39.875 19.85 39.875 L 28.93 39.875 C 29.843 39.877 30.728 39.566 31.44 38.995 L 35.44 35.775 C 35.8 35.493 36.243 35.339 36.7 35.335 L 46.23 35.335 C 46.512 35.335 46.74 35.563 46.74 35.845 L 46.78 52.665 Z" fill="#000000" class="fill-3d3d63" style="stroke: rgb(0, 0, 0);"/>
    <path d="M43.64 48.27h-3.77a1 1 0 0 0 0 2h3.77a1 1 0 0 0 0-2ZM24.7 18.12H30a1 1 0 0 0 0-2h-5.3a1 1 0 0 0 0 2ZM19 23.79h16.64a1 1 0 0 0 0-2H19a1 1 0 0 0 0 2ZM36.64 27.83a1 1 0 0 0-1-1H19a1 1 0 0 0 0 2h16.64a1 1 0 0 0 1-1Z" fill="#000000" class="fill-3d3d63"/>
  </g>
</svg>