<?xml version="1.0" standalone="no"?>
<!DOCTYPE svg PUBLIC "-//W3C//DTD SVG 20010904//EN"
 "http://www.w3.org/TR/2001/REC-SVG-20010904/DTD/svg10.dtd">
<svg version="1.0" xmlns="http://www.w3.org/2000/svg"
 width="441px" height="419px" viewBox="0 0 441.000000 419.000000"
 preserveAspectRatio="xMidYMid meet">

<g transform="translate(0.000000,419.000000) scale(0.100000,-0.100000)"
fill="#000000" stroke="none">
<path d="M2140 3983 c-106 -37 -170 -127 -170 -240 0 -35 7 -81 16 -103 l17
-41 -35 -37 c-19 -20 -181 -197 -359 -392 -178 -195 -328 -360 -334 -366 -5
-6 -117 -128 -248 -271 l-239 -261 -141 -4 c-129 -4 -148 -7 -205 -33 -76 -34
-134 -95 -153 -162 -11 -39 -14 -194 -14 -833 l0 -785 27 -51 c31 -59 84 -108
147 -138 l46 -21 1725 0 1725 0 46 21 c63 30 116 79 147 138 l27 51 3 780 3
780 -26 67 c-30 76 -70 117 -155 156 -49 23 -70 26 -202 30 -144 4 -148 5
-164 29 -13 21 -228 258 -423 468 -26 28 -193 210 -371 405 -177 195 -339 372
-358 392 l-35 37 17 41 c23 57 21 161 -3 208 -32 63 -91 116 -150 135 -65 21
-102 21 -161 0z m171 -151 c39 -43 47 -96 23 -141 -56 -101 -172 -101 -228 0
-26 48 -15 102 30 147 33 33 37 34 91 30 47 -4 61 -10 84 -36z m-91 -336 c36
0 79 3 96 8 30 8 34 3 224 -206 107 -117 220 -240 251 -273 31 -33 157 -170
280 -305 122 -135 262 -287 311 -339 48 -52 88 -98 88 -103 0 -4 -562 -8
-1250 -8 -687 0 -1250 4 -1250 8 0 5 40 51 88 103 49 52 189 204 311 339 123
135 249 272 280 305 31 33 144 156 251 273 190 209 194 214 224 206 17 -5 60
-8 96 -8z m1695 -1360 c41 -9 100 -51 115 -84 16 -35 15 -1537 -1 -1580 -14
-37 -48 -72 -86 -88 -50 -21 -3395 -22 -3445 -1 -39 17 -73 51 -87 90 -7 19
-11 279 -11 789 0 724 0 763 18 797 25 48 71 73 146 80 79 8 3312 4 3351 -3z"/>
<path d="M1120 1674 c-208 -40 -309 -195 -298 -457 5 -121 27 -197 77 -264 92
-123 304 -158 469 -77 64 31 121 100 152 181 43 113 42 304 -1 418 -29 77
-104 154 -174 179 -50 17 -178 29 -225 20z m198 -137 c74 -49 114 -161 107
-303 -9 -185 -81 -280 -218 -291 -112 -9 -180 26 -225 117 -25 52 -27 63 -27
190 0 125 2 139 26 191 45 95 106 130 220 126 63 -2 82 -6 117 -30z"/>
<path d="M1755 1662 c-46 -10 -45 -4 -45 -418 l0 -394 24 -6 c13 -3 38 -4 57
-2 l34 3 3 151 3 151 92 5 c137 7 224 53 269 141 26 51 34 147 18 207 -15 58
-87 130 -150 150 -43 13 -259 22 -305 12z m276 -125 c44 -30 59 -60 59 -125 0
-105 -53 -152 -177 -155 l-78 -2 -3 153 -3 152 84 0 c71 0 89 -4 118 -23z"/>
<path d="M2393 1655 l-23 -16 0 -384 0 -384 22 -15 c19 -13 57 -16 218 -16
107 0 201 4 208 8 19 13 23 70 6 87 -13 12 -47 15 -175 15 l-159 0 0 135 0
135 140 0 140 0 10 26 c6 14 7 36 4 50 l-6 24 -144 0 -144 0 0 120 0 120 158
0 c110 0 162 4 170 12 19 19 15 76 -6 87 -10 5 -103 10 -207 10 -159 1 -194
-1 -212 -14z"/>
<path d="M3030 1658 l-25 -14 -3 -394 c-2 -308 1 -395 10 -402 21 -13 85 -9
97 5 7 9 12 116 13 328 l3 314 20 -41 c71 -147 295 -553 321 -581 27 -28 38
-33 77 -33 81 0 77 -20 77 425 0 349 -2 394 -16 399 -24 9 -63 7 -85 -4 -18
-10 -19 -25 -19 -318 l-1 -307 -20 40 c-116 226 -306 568 -320 576 -32 17
-103 21 -129 7z"/>
</g>
</svg>
