<?xml version="1.0" encoding="utf-8"?>
<svg viewBox="0 0 500 500" width="500px" height="500px" xmlns="http://www.w3.org/2000/svg">
  <g transform="matrix(0.5375, 0, 0, -0.5375, -81.66082, 534.045166)" fill="#000000" stroke="none">
    <path d="M550 865 l0 -105 -40 0 c-22 0 -40 -2 -40 -5 0 -11 133 -205 141 -205 9 0 139 188 139 201 0 5 -16 9 -35 9 l-35 0 0 105 0 105 -65 0 -65 0 0 -105z m100 -20 l0 -105 30 0 c17 0 30 -2 30 -5 0 -9 -93 -145 -99 -145 -8 0 -91 127 -91 140 0 5 11 10 25 10 l25 0 0 105 0 105 40 0 40 0 0 -105z" style="stroke: rgb(0, 0, 0); stroke-width: 16px;"/>
    <path d="M298 674 c-71 -35 -128 -68 -128 -73 0 -5 25 -21 55 -37 30 -16 55 -32 55 -37 0 -4 -25 -19 -55 -34 -30 -15 -55 -31 -55 -35 0 -4 32 -24 70 -43 l70 -35 0 -75 0 -76 146 -69 c81 -39 151 -70 156 -70 5 0 75 32 154 71 l144 71 0 72 0 72 70 34 c39 19 70 40 70 47 0 7 -25 25 -55 40 -30 15 -55 30 -55 33 0 3 25 18 56 33 30 15 54 33 52 39 -4 11 -243 137 -260 138 -5 0 -8 -4 -8 -10 0 -5 53 -36 118 -69 l117 -59 -58 -28 -57 -28 -85 42 c-47 23 -92 42 -100 42 -32 0 -11 -18 65 -55 44 -21 80 -42 80 -45 0 -3 -56 -33 -125 -68 l-125 -62 -125 62 c-69 35 -125 65 -125 68 0 3 36 24 80 45 72 35 97 55 70 55 -6 0 -46 -18 -90 -40 -44 -22 -86 -40 -95 -40 -19 0 -105 42 -105 51 0 4 52 32 115 63 63 31 115 60 115 66 0 18 -24 10 -152 -56z m158 -226 l126 -62 -59 -29 -59 -29 -122 61 c-67 34 -122 65 -122 69 0 9 78 50 97 51 7 1 69 -27 139 -61z m507 36 l52 -27 -132 -65 -132 -66 -43 23 c-24 13 -47 27 -52 32 -8 7 217 127 242 128 7 1 36 -11 65 -25z m-553 -154 l60 -30 61 31 c34 16 63 28 65 26 3 -2 3 -57 2 -121 l-3 -117 -127 63 -128 62 0 58 c0 32 2 58 5 58 3 0 32 -14 65 -30z m290 0 l60 -30 60 30 c33 16 62 30 65 30 3 0 5 -26 3 -57 l-3 -58 -125 -62 c-68 -34 -128 -59 -132 -57 -12 8 -10 234 2 234 6 0 37 -14 70 -30z" style="stroke: rgb(0, 0, 0); stroke-width: 16px;"/>
    <path d="M600 480 c0 -22 5 -40 10 -40 6 0 10 18 10 40 0 22 -4 40 -10 40 -5 0 -10 -18 -10 -40z"/>
  </g>
</svg>