<?xml version="1.0" standalone="no"?>
<!DOCTYPE svg PUBLIC "-//W3C//DTD SVG 20010904//EN"
 "http://www.w3.org/TR/2001/REC-SVG-20010904/DTD/svg10.dtd">
<svg version="1.0" xmlns="http://www.w3.org/2000/svg"
 width="127px" height="90px" viewBox="0 0 127.000000 90.000000"
 preserveAspectRatio="xMidYMid meet">

<g transform="translate(0.000000,90.000000) scale(0.100000,-0.100000)"
fill="#000000" stroke="none">
<path d="M87 802 c-15 -16 -17 -59 -21 -345 -2 -205 0 -327 6 -327 5 0 6 -5 3
-11 -4 -5 1 -19 11 -30 16 -18 35 -19 541 -19 510 0 524 1 543 20 19 19 20 33
20 359 0 340 0 340 -22 355 -20 14 -88 16 -544 16 -492 0 -522 -1 -537 -18z
m1061 -24 c9 -9 12 -97 12 -335 0 -308 -1 -323 -19 -333 -30 -15 -999 -13
-1027 3 -21 12 -21 17 -20 335 1 272 4 325 16 332 24 15 1023 13 1038 -2z"/>
<path d="M178 661 c-1 -28 -1 -60 2 -72 3 -13 3 -46 0 -75 -3 -29 -3 -60 0
-69 3 -10 4 -38 1 -64 -4 -25 -5 -63 -3 -84 l3 -37 202 2 202 3 0 220 0 220
-202 3 -201 2 -4 -49z m372 -137 l0 -156 -30 25 c-16 14 -39 28 -50 32 -22 7
-26 20 -10 30 6 3 10 33 10 66 0 50 -4 64 -25 84 -35 36 -93 34 -129 -2 -25
-24 -27 -33 -24 -83 2 -30 8 -62 12 -72 5 -11 2 -18 -12 -22 -11 -4 -32 -18
-47 -32 -15 -14 -30 -23 -33 -20 -7 8 -5 283 2 295 4 5 79 10 171 10 l165 1 0
-156z m-128 59 c21 -19 25 -91 6 -115 -24 -30 -56 -31 -83 -4 -65 65 9 180 77
119z m44 -195 c40 -18 84 -66 84 -90 0 -5 -77 -8 -171 -8 -152 0 -170 2 -165
16 3 9 6 24 6 35 0 10 3 18 8 17 4 -1 32 11 62 25 67 33 115 34 176 5z"/>
<path d="M1008 704 c-3 -3 3 -27 13 -54 28 -74 33 -146 14 -210 -28 -96 -29
-100 -13 -100 28 0 53 87 53 185 0 71 -5 100 -22 138 -20 44 -32 55 -45 41z"/>
<path d="M926 651 c-3 -5 1 -25 9 -45 19 -44 19 -118 0 -171 -17 -48 -4 -68
20 -31 27 40 36 109 24 169 -17 77 -36 106 -53 78z"/>
<path d="M846 602 c-3 -5 -1 -26 5 -46 7 -26 7 -47 0 -68 -15 -41 -14 -48 4
-48 31 0 45 79 24 139 -11 31 -23 39 -33 23z"/>
<path d="M751 211 c-18 -12 -10 -55 12 -59 13 -3 17 3 17 27 0 33 -9 44 -29
32z"/>
<path d="M906 213 c-13 -13 -6 -63 9 -63 10 0 15 10 15 29 0 30 -12 46 -24 34z"/>
<path d="M976 213 c-13 -13 -6 -63 9 -63 10 0 15 10 15 29 0 30 -12 46 -24 34z"/>
<path d="M820 180 c0 -20 5 -30 15 -30 10 0 15 10 15 30 0 20 -5 30 -15 30
-10 0 -15 -10 -15 -30z"/>
<path d="M1050 180 c0 -20 5 -30 15 -30 10 0 15 10 15 30 0 20 -5 30 -15 30
-10 0 -15 -10 -15 -30z"/>
<path d="M180 166 c0 -21 53 -27 228 -26 157 2 191 7 178 29 -5 7 -71 11 -207
11 -163 0 -199 -3 -199 -14z"/>
</g>
</svg>
