<?xml version="1.0" standalone="no"?>
<!DOCTYPE svg PUBLIC "-//W3C//DTD SVG 20010904//EN"
 "http://www.w3.org/TR/2001/REC-SVG-20010904/DTD/svg10.dtd">
<svg version="1.0" xmlns="http://www.w3.org/2000/svg"
 width="121px" height="140px" viewBox="0 0 121.000000 140.000000"
 preserveAspectRatio="xMidYMid meet">

<g transform="translate(0.000000,140.000000) scale(0.100000,-0.100000)"
fill="#000000" stroke="none">
<path d="M460 1075 l0 -205 159 0 c157 0 159 0 162 23 2 12 3 104 1 205 l-3
182 -159 0 -160 0 0 -205z m240 75 l0 -40 -80 0 -80 0 0 40 0 40 80 0 80 0 0
-40z m0 -160 l0 -40 -80 0 -80 0 0 40 0 40 80 0 80 0 0 -40z"/>
<path d="M222 1098 c-9 -9 -12 -68 -12 -205 l0 -193 410 0 410 0 0 193 c0 137
-3 196 -12 205 -7 7 -40 12 -80 12 l-68 0 0 -119 0 -120 38 -3 c36 -3 37 -4
37 -43 l0 -40 -325 0 -325 0 0 40 c0 39 1 40 40 45 l40 5 3 94 c5 142 5 141
-76 141 -40 0 -73 -5 -80 -12z"/>
<path d="M222 648 c-9 -9 -12 -82 -12 -265 l0 -253 410 0 410 0 0 253 c0 183
-3 256 -12 265 -17 17 -779 17 -796 0z"/>
</g>
</svg>
