<?xml version="1.0" standalone="no"?>
<!DOCTYPE svg PUBLIC "-//W3C//DTD SVG 20010904//EN"
 "http://www.w3.org/TR/2001/REC-SVG-20010904/DTD/svg10.dtd">
<svg version="1.0" xmlns="http://www.w3.org/2000/svg"
 width="124px" height="104px" viewBox="0 0 124.000000 104.000000"
 preserveAspectRatio="xMidYMid meet">

<g transform="translate(0.000000,104.000000) scale(0.100000,-0.100000)"
fill="#000000" stroke="none">
<path d="M132 924 c-22 -15 -22 -16 -22 -383 0 -344 1 -369 18 -384 17 -15 65
-17 489 -17 443 0 471 1 486 18 15 17 17 58 17 384 0 341 -1 366 -18 381 -17
15 -64 17 -483 17 -402 0 -468 -3 -487 -16z m946 -76 l3 -48 -258 -2 c-142 -1
-351 -2 -465 -3 l-208 -1 0 46 c0 26 3 50 7 53 3 4 212 6 462 5 l456 -3 3 -47z
m2 -378 l0 -290 -462 2 -463 3 -3 275 c-1 151 0 280 3 287 3 10 103 13 465 13
l460 0 0 -290z"/>
<path d="M395 635 c-21 -8 -47 -24 -57 -37 -19 -25 -24 -89 -8 -117 7 -14 5
-23 -10 -36 -22 -20 -45 -89 -35 -105 10 -16 35 -11 35 6 0 9 7 31 16 49 l16
34 80 -3 c87 -4 93 -8 104 -63 5 -24 12 -33 26 -33 18 0 20 5 15 37 -4 21 -15
49 -26 64 -16 22 -19 37 -14 82 7 67 -10 101 -62 123 -19 8 -36 14 -37 14 -2
-1 -21 -7 -43 -15z m88 -57 c26 -30 22 -73 -9 -97 -15 -12 -34 -21 -44 -21
-10 0 -29 9 -44 21 -35 27 -35 71 0 105 29 30 67 27 97 -8z"/>
<path d="M675 580 c-15 -24 12 -30 141 -30 124 0 135 2 132 18 -3 15 -19 17
-135 20 -82 2 -134 -1 -138 -8z"/>
<path d="M677 415 c-9 -22 7 -27 109 -32 106 -6 164 2 164 21 0 22 -24 26
-150 26 -94 0 -119 -3 -123 -15z"/>
</g>
</svg>
