<?xml version="1.0" encoding="utf-8"?>
<svg viewBox="0 0 96 137" width="96px" height="137px" xmlns="http://www.w3.org/2000/svg">
  <g transform="matrix(0.1, 0, 0, -0.1, 0, 137)" fill="#000000" stroke="none">
    <path d="M 60 745 C 60 285 55.16 99.885 68.16 99.885 C 81.16 99.885 90 282 90 715 C 90 987 93 1210 98 1210 C 102 1210 116 1203 128 1194 C 150 1179 154 1180 191 1204 L 230 1230 L 269 1204 L 308 1179 L 349 1206 C 386 1230 392 1231 408 1218 C 449 1182 465 1180 504 1206 L 541 1232 L 582 1205 L 622 1179 L 661 1206 C 696 1230 702 1231 718 1218 C 756 1184 778 1178 805 1196 L 830 1212 L 830 676 L 830 140 L 445 140 C 67 140 59.97 127.82 59.97 107.82 C 59.97 87.82 67 100 465 100 L 870 100 L 870 685 C 870 1332 874 1296 808 1248 C 783 1231 774 1229 759 1238 C 748 1245 731 1256 720 1263 C 703 1273 693 1271 659 1252 L 619 1229 L 586 1249 C 544 1275 535 1275 498 1249 C 467 1227 455 1229 408 1262 C 393 1273 383 1271 346 1251 L 302 1227 L 275 1248 C 241 1275 226 1275 189 1249 C 159 1228 131 1230 110 1255 C 103 1263 89 1270 79 1270 C 61 1270 60 1252 60 745 Z" style="stroke: rgb(0, 0, 0); stroke-width: 20px;"/>
    <path d="M237 1054 c-4 -4 -7 -13 -7 -21 0 -10 46 -13 236 -13 219 0 235 1 232 18 -3 15 -23 17 -229 20 -124 1 -228 -1 -232 -4z" style="stroke: rgb(0, 0, 0); stroke-width: 20px;"/>
    <path d="M310 940 c0 -19 8 -20 155 -20 145 0 155 1 155 19 0 18 -10 19 -155 19 -147 1 -155 0 -155 -18z" style="stroke: rgb(0, 0, 0); stroke-width: 20px;"/>
    <path d="M630 712 c0 -10 -12 -22 -29 -29 -16 -6 -36 -24 -45 -41 -25 -48 -7 -74 81 -116 63 -31 74 -40 71 -58 -7 -48 -102 -48 -123 0 -13 29 -35 29 -35 0 1 -30 20 -55 53 -67 17 -7 27 -18 27 -31 0 -13 7 -20 20 -20 13 0 20 7 20 20 0 12 10 24 24 30 29 11 56 47 56 75 -1 33 -23 53 -92 84 -77 34 -86 45 -62 72 28 31 95 23 112 -13 15 -31 30 -36 39 -12 9 23 -16 61 -48 75 -18 7 -29 19 -29 30 0 12 -7 19 -20 19 -13 0 -20 -7 -20 -18z" style="stroke: rgb(0, 0, 0); stroke-width: 20px;"/>
    <path d="M194 696 c-10 -26 4 -48 28 -44 17 2 23 10 23 28 0 18 -6 26 -23 28 -13 2 -25 -3 -28 -12z" style="stroke: rgb(0, 0, 0); stroke-width: 20px;"/>
    <path d="M310 680 c0 -20 5 -21 78 -18 60 2 77 6 77 18 0 12 -17 16 -77 18 -73 3 -78 2 -78 -18z" style="stroke: rgb(0, 0, 0); stroke-width: 20px;"/>
    <path d="M194 556 c-10 -26 4 -48 28 -44 33 4 33 52 0 56 -13 2 -25 -3 -28 -12z" style="stroke: rgb(0, 0, 0); stroke-width: 20px;"/>
    <path d="M310 540 c0 -18 7 -20 80 -20 73 0 80 2 80 20 0 18 -7 20 -80 20 -73 0 -80 -2 -80 -20z" style="stroke: rgb(0, 0, 0); stroke-width: 20px;"/>
    <path d="M194 416 c-9 -24 3 -45 23 -41 10 2 22 4 26 4 5 1 7 11 5 24 -4 27 -45 37 -54 13z" style="stroke: rgb(0, 0, 0); stroke-width: 20px;"/>
    <path d="M310 400 c0 -20 5 -21 78 -18 60 2 77 6 77 18 0 12 -17 16 -77 18 -73 3 -78 2 -78 -18z" style="stroke: rgb(0, 0, 0); stroke-width: 20px;"/>
  </g>
</svg>