<?xml version="1.0" standalone="no"?>
<!DOCTYPE svg PUBLIC "-//W3C//DTD SVG 20010904//EN"
 "http://www.w3.org/TR/2001/REC-SVG-20010904/DTD/svg10.dtd">
<svg version="1.0" xmlns="http://www.w3.org/2000/svg"
 width="629px" height="638px" viewBox="0 0 629.000000 638.000000"
 preserveAspectRatio="xMidYMid meet">

<g transform="translate(0.000000,638.000000) scale(0.100000,-0.100000)"
fill="#000000" stroke="none">
<path d="M1592 5979 c-49 -24 -75 -57 -91 -114 -15 -54 -15 -959 0 -1019 31
-124 181 -172 280 -89 60 51 59 44 59 603 0 556 2 536 -57 593 -53 50 -123 59
-191 26z"/>
<path d="M3659 5991 c-44 -14 -74 -39 -97 -80 -22 -38 -22 -42 -22 -555 0
-566 -2 -547 60 -600 65 -54 155 -54 220 0 62 53 60 34 60 599 0 490 -1 518
-19 553 -36 68 -129 106 -202 83z"/>
<path d="M450 3175 l0 -2165 1015 0 c558 0 1015 2 1015 5 0 3 -15 36 -34 73
-18 37 -48 104 -66 149 l-33 83 -793 0 -794 0 0 1415 0 1415 1930 0 1930 0 0
-164 0 -165 58 -16 c49 -13 181 -59 235 -80 16 -7 17 35 17 804 l0 811 -495 0
-495 0 0 -172 c0 -124 4 -187 15 -222 19 -62 19 -89 -1 -157 -29 -98 -140
-179 -244 -179 -104 0 -215 82 -244 181 -20 65 -20 93 -1 155 11 35 15 98 15
222 l0 172 -792 -2 -793 -3 -3 -162 c-2 -143 0 -170 19 -225 24 -73 20 -127
-17 -199 -29 -59 -85 -105 -148 -124 -66 -20 -105 -19 -169 5 -127 48 -195
190 -153 319 12 38 16 90 16 220 l0 171 -495 0 -495 0 0 -2165z"/>
<path d="M1280 3550 l0 -210 205 0 205 0 0 210 0 210 -205 0 -205 0 0 -210z"/>
<path d="M2080 3550 l0 -210 210 0 210 0 0 210 0 210 -210 0 -210 0 0 -210z"/>
<path d="M2880 3575 c0 -102 2 -185 5 -185 3 0 34 24 68 53 65 55 191 140 290
196 56 32 57 33 57 77 l0 44 -210 0 -210 0 0 -185z"/>
<path d="M3960 3610 c-188 -26 -343 -72 -510 -151 -172 -82 -301 -172 -443
-308 -241 -232 -406 -530 -479 -865 -19 -88 -22 -131 -22 -331 -1 -203 2 -242
22 -335 50 -227 152 -460 279 -640 83 -116 270 -305 378 -382 627 -443 1453
-418 2040 62 486 398 707 1040 569 1659 -108 484 -435 901 -879 1121 -251 125
-435 170 -715 175 -96 2 -204 0 -240 -5z m405 -325 c434 -65 811 -339 1010
-734 48 -97 100 -255 120 -366 20 -116 21 -332 1 -456 -78 -484 -433 -900
-903 -1057 -153 -52 -249 -66 -433 -66 -144 1 -180 4 -283 28 -550 127 -950
552 -1042 1105 -27 160 -17 389 23 541 97 367 316 656 637 840 262 151 571
210 870 165z"/>
<path d="M4395 2199 l-490 -489 -232 232 -233 233 -125 -125 -125 -125 357
-357 358 -358 617 617 618 618 -122 122 c-68 68 -125 123 -128 123 -3 -1 -225
-221 -495 -491z"/>
<path d="M1280 3005 l0 -205 205 0 205 0 0 205 0 205 -205 0 -205 0 0 -205z"/>
<path d="M2080 3005 l0 -205 180 0 180 0 30 60 c29 58 30 63 30 205 l0 145
-210 0 -210 0 0 -205z"/>
<path d="M1280 2461 l0 -208 203 1 202 2 3 207 2 207 -205 0 -205 0 0 -209z"/>
<path d="M2080 2460 l0 -211 92 3 93 3 17 85 c14 69 72 263 94 318 4 9 -28 12
-145 12 l-151 0 0 -210z"/>
<path d="M1280 1920 l0 -210 205 0 205 0 0 210 0 210 -205 0 -205 0 0 -210z"/>
<path d="M2080 1920 l0 -210 91 0 c83 0 90 2 84 18 -4 9 -9 103 -10 207 l-2
190 -81 3 -82 3 0 -211z"/>
</g>
</svg>
