<?xml version="1.0" standalone="no"?>
<!DOCTYPE svg PUBLIC "-//W3C//DTD SVG 20010904//EN"
 "http://www.w3.org/TR/2001/REC-SVG-20010904/DTD/svg10.dtd">
<svg version="1.0" xmlns="http://www.w3.org/2000/svg"
 width="110px" height="113px" viewBox="0 0 110.000000 113.000000"
 preserveAspectRatio="xMidYMid meet">

<g transform="translate(0.000000,113.000000) scale(0.100000,-0.100000)"
fill="#000000" stroke="none">
<path d="M502 961 c-7 -4 -19 -30 -26 -57 -10 -41 -17 -50 -43 -57 -25 -8 -37
-4 -72 19 l-42 27 -49 -48 c-28 -27 -50 -53 -50 -57 0 -5 12 -27 26 -49 37
-59 25 -89 -47 -109 l-54 -16 0 -68 c0 -76 2 -79 71 -96 57 -14 64 -43 27
-109 l-28 -50 47 -48 47 -47 51 26 c67 35 105 25 115 -30 12 -67 19 -72 90
-72 36 0 67 5 71 11 4 6 12 32 18 57 16 62 48 74 105 38 22 -14 45 -26 50 -26
14 0 80 59 92 82 8 16 5 28 -16 60 -38 57 -28 94 28 108 70 17 72 20 72 96 l0
68 -54 16 c-44 12 -56 21 -64 43 -7 23 -4 35 17 67 14 22 26 43 26 48 0 4 -22
29 -49 56 l-48 48 -50 -28 c-43 -24 -54 -27 -76 -17 -18 9 -27 22 -32 53 -4
22 -13 47 -22 55 -16 16 -109 21 -131 6z m109 -96 c14 -46 20 -51 63 -68 47
-17 47 -17 90 8 l43 25 22 -24 23 -25 -21 -29 c-24 -34 -25 -61 -7 -112 11
-29 20 -37 62 -51 44 -14 49 -19 52 -47 3 -29 0 -32 -40 -42 -24 -6 -48 -13
-54 -14 -11 -4 -34 -72 -34 -101 0 -10 9 -32 20 -50 l20 -32 -24 -22 -23 -22
-38 22 c-36 22 -38 22 -90 5 -52 -16 -53 -18 -65 -66 -11 -47 -14 -50 -45 -50
-31 0 -34 3 -46 50 -12 46 -16 50 -58 65 -57 19 -71 19 -101 -5 -32 -25 -35
-25 -60 2 l-20 22 20 33 c23 40 24 52 8 105 -10 35 -16 40 -65 54 -50 15 -53
17 -53 49 0 31 3 34 39 40 54 9 68 22 82 76 11 42 10 50 -10 84 l-22 38 22 23
22 23 42 -25 43 -25 48 20 c44 17 50 23 61 62 14 47 28 60 58 57 14 -2 24 -17
36 -53z"/>
<path d="M486 677 c-72 -41 -99 -144 -56 -215 62 -101 220 -96 272 8 71 140
-81 285 -216 207z m150 -61 c46 -46 47 -99 5 -145 -24 -26 -36 -31 -76 -31
-62 0 -105 39 -105 97 1 70 42 112 109 113 25 0 42 -9 67 -34z"/>
</g>
</svg>
