<svg width="200px" height="200px" xmlns="http://www.w3.org/2000/svg">

 <g>
  <title>background</title>
  <rect fill="none" id="canvas_background" height="402" width="582" y="-1" x="-1"/>
 </g>
 <g>
  <title>Layer 1</title>
  <path id="svg_2" fill="#000000" d="m124.872,171.401l0,-14.57c0,-0.812 -0.311,-1.626 -0.932,-2.247c-0.619,-0.621 -1.43,-0.93 -2.244,-0.93l-43.393,0c-0.813,0 -1.625,0.309 -2.246,0.93c-0.62,0.621 -0.93,1.436 -0.93,2.247l0,14.57l-17.026,9.406c-0.166,0.097 -0.313,0.23 -0.417,0.412c-0.104,0.175 -0.156,0.372 -0.156,0.565l0,2.064c0,0.286 0.108,0.572 0.327,0.788c0.216,0.22 0.5,0.327 0.787,0.327l82.715,0c0.286,0 0.57,-0.107 0.786,-0.327c0.22,-0.216 0.327,-0.502 0.327,-0.788l0,-2.064c0,-0.193 -0.05,-0.391 -0.156,-0.565c-0.104,-0.182 -0.251,-0.315 -0.42,-0.412l-17.022,-9.406z"/>
  <path id="svg_3" fill="#000000" d="m197.789,17.244c-1.473,-1.475 -3.4,-2.209 -5.329,-2.209l-184.919,0c-1.93,0 -3.859,0.735 -5.33,2.209c-1.476,1.472 -2.211,3.401 -2.211,5.329l0,119.702c0,1.93 0.734,3.86 2.211,5.333c1.471,1.473 3.399,2.209 5.33,2.209l184.919,0c1.929,0 3.856,-0.736 5.329,-2.209c1.475,-1.473 2.211,-3.403 2.211,-5.333l0,-119.702c0,-1.928 -0.736,-3.857 -2.211,-5.329zm-97.789,129.378c-1.841,0 -3.334,-1.491 -3.334,-3.332s1.493,-3.336 3.334,-3.336c1.843,0 3.333,1.495 3.333,3.336s-1.49,3.332 -3.333,3.332zm86.958,-9.848l-173.915,0l0,-108.697l173.915,0l0,108.697z"/>
  <path id="svg_5" fill="#000000" d="m41.008,126.266149c-0.403,0 -0.803,0.152 -1.11,0.457c-0.309,0.313 -0.459,0.711 -0.459,1.112l0,1.19l16.797,0l0,-1.19c0,-0.401 -0.154,-0.8 -0.463,-1.112c-0.303,-0.305 -0.707,-0.457 -1.104,-0.457l-13.661,0z"/>
  <path id="svg_6" fill="#000000" d="m61.513,106.871149c-0.398,0 -0.801,0.152 -1.106,0.457c-0.307,0.309 -0.458,0.711 -0.458,1.112l0,20.585l16.792,0l0,-20.585c0,-0.401 -0.15,-0.804 -0.458,-1.112c-0.309,-0.305 -0.707,-0.457 -1.11,-0.457l-13.66,0z"/>
  <path id="svg_7" fill="#000000" d="m82.022,98.897149c-0.402,0 -0.802,0.15 -1.11,0.456c-0.307,0.309 -0.458,0.71 -0.458,1.112l0,28.562l16.796,0l0,-28.562c0,-0.402 -0.153,-0.803 -0.459,-1.112c-0.301,-0.305 -0.707,-0.456 -1.108,-0.456l-13.661,0z"/>
  <path id="svg_8" fill="#000000" d="m102.532,102.474c-0.403,0 -0.804,0.148 -1.108,0.457c-0.309,0.309 -0.461,0.707 -0.461,1.112l0,25.26l16.797,0l0,-25.26c0,-0.405 -0.15,-0.804 -0.463,-1.112c-0.303,-0.309 -0.703,-0.457 -1.104,-0.457l-13.661,0z"/>
  <path id="svg_9" fill="#000000" d="m123.039,89.657c-0.405,0 -0.806,0.154 -1.112,0.458c-0.305,0.309 -0.461,0.708 -0.461,1.11l0,38.079l16.803,0l0,-38.08c0,-0.401 -0.156,-0.801 -0.465,-1.11c-0.302,-0.303 -0.703,-0.458 -1.106,-0.458l-13.659,0l0,0.001z"/>
  <path id="svg_10" fill="#000000" d="m143.546,73.659c-0.402,0 -0.802,0.152 -1.11,0.459c-0.303,0.305 -0.457,0.708 -0.457,1.108l0,54.076l16.795,0l0,-54.075c0,-0.4 -0.15,-0.804 -0.46,-1.108c-0.305,-0.307 -0.708,-0.459 -1.107,-0.459l-13.661,0l0,-0.001z"/>
  <path id="svg_11" fill="#000000" d="m171.387,43.723c0.212,-0.359 0.195,-0.824 -0.075,-1.173c-0.271,-0.346 -0.721,-0.476 -1.119,-0.359l-16.78,4.917c-0.319,0.095 -0.591,0.338 -0.703,0.682c-0.111,0.344 -0.033,0.701 0.17,0.963l2.036,2.611l-50.824,39.645l-28.166,-11.935l-46.971,44.598c-0.29,0.279 -0.476,0.662 -0.489,1.097c-0.005,0.432 0.154,0.83 0.434,1.124l2.161,2.271c0.277,0.29 0.664,0.48 1.095,0.491c0.433,0.008 0.831,-0.156 1.121,-0.436l43.985,-41.765l27.78,11.767l53.732,-41.914l2.036,2.607c0.204,0.26 0.531,0.424 0.889,0.4c0.36,-0.024 0.664,-0.223 0.833,-0.515l8.855,-15.076z"/>
 </g>
</svg>