<svg width="24px" height="24px" xmlns="http://www.w3.org/2000/svg">

 <g>
  <rect fill="none" id="canvas_background" height="402" width="582" y="-1" x="-1"/>
 </g>
 <g>
  <path id="svg_1" d="m22.966777,3.179403l-22,0c-0.6,0 -1,0.4 -1,1s0.4,1 1,1l8,0l0,1c0,0.6 0.4,1 1,1l0,4.3c-3.4,0.9 -6,4 -6,7.7l0,1l3,0l0,-1c0,-2 1.2,-3.8 3,-4.6l0,5.6l4,0l0,-5.6c1.8,0.8 3,2.5 3,4.6l0,1l3,0l0,-1c0,-3.7 -2.6,-6.8 -6,-7.7l0,-4.3c0.6,0 1,-0.4 1,-1l0,-1l8,0c0.6,0 1,-0.4 1,-1s-0.4,-1 -1,-1zm-9,9.3c2.9,0.9 5,3.5 5,6.7l-1,0c0,-2.6 -1.7,-4.8 -4,-5.7l-1,-0.1l0,5.8l-2,0l0,-5.8l-1,0.1c-2.3,0.8 -4,3 -4,5.7l-1,0c0,-3.2 2.1,-5.8 5,-6.7l1,-0.1l0,-5.2l2,0l0,5.1l1,0.2zm0,-6.3l-4,0l0,-1l4,0l0,1z"/>
 </g>
</svg>
