<svg viewBox="0 0 286 195" width="286px" height="195px" xmlns="http://www.w3.org/2000/svg">
  <g style="" transform="matrix(10.310277, 0, 0, 10.310277, 4.902142, -27.921764)">
    <path id="svg_1" d="m22.966777,3.179403l-22,0c-0.6,0 -1,0.4 -1,1s0.4,1 1,1l8,0l0,1c0,0.6 0.4,1 1,1l0,4.3c-3.4,0.9 -6,4 -6,7.7l0,1l3,0l0,-1c0,-2 1.2,-3.8 3,-4.6l0,5.6l4,0l0,-5.6c1.8,0.8 3,2.5 3,4.6l0,1l3,0l0,-1c0,-3.7 -2.6,-6.8 -6,-7.7l0,-4.3c0.6,0 1,-0.4 1,-1l0,-1l8,0c0.6,0 1,-0.4 1,-1s-0.4,-1 -1,-1zm-9,9.3c2.9,0.9 5,3.5 5,6.7l-1,0c0,-2.6 -1.7,-4.8 -4,-5.7l-1,-0.1l0,5.8l-2,0l0,-5.8l-1,0.1c-2.3,0.8 -4,3 -4,5.7l-1,0c0,-3.2 2.1,-5.8 5,-6.7l1,-0.1l0,-5.2l2,0l0,5.1l1,0.2zm0,-6.3l-4,0l0,-1l4,0l0,1z"/>
  </g>
  <g transform="matrix(7.57522, 0, 0, 7.57522, 30.939672, -52.105202)">
    <path id="svg_5" d="m24,30l0.3,0c0.1,0 0.2,0 0.4,0c-0.2,0 -0.5,0 -0.7,0z"/>
    <path id="svg_7" d="m25,23l6.9,0c-0.2,-1.7 -1,-3.4 -2.3,-4.7s-3,-2.1 -4.7,-2.3l0,7l0.1,0z"/>
    <path id="svg_8" d="m24,25c-0.6,0 -1,-0.4 -1,-1l0,-7.9c-1.7,0.2 -3.4,1 -4.7,2.3c-3.1,3.1 -3.1,8.2 0,11.3s8.2,3.1 11.3,0c1.3,-1.3 2.1,-3 2.3,-4.7l-7.9,0z"/>
  </g>
</svg>
