<?xml version="1.0" encoding="utf-8"?>
<svg viewBox="0 0 161 175" width="161px" height="175px" xmlns="http://www.w3.org/2000/svg">
  <g transform="matrix(0.124667, 0, 0, -0.124667, -21.033298, 192.358444)" fill="#000000" stroke="none">
    <path d="M723 1443 c-56 -19 -126 -97 -143 -158 -49 -174 106 -343 280 -306 193 41 265 274 127 409 -70 68 -169 89 -264 55z m173 -33 c68 -26 123 -111 124 -191 0 -123 -83 -209 -203 -209 -142 0 -242 139 -197 274 36 111 161 168 276 126z" style="stroke-width: 8.02137px;"/>
    <path d="M520 965 c-60 -19 -124 -83 -149 -151 -20 -51 -84 -474 -75 -484 8 -8 341 -13 379 -6 21 4 35 13 35 21 0 13 -31 15 -191 15 l-191 0 6 28 c3 15 17 107 30 204 14 97 32 194 41 215 34 81 111 132 201 133 103 0 173 -55 219 -171 15 -41 40 -101 55 -134 15 -33 34 -76 43 -96 17 -41 11 -39 212 -60 72 -7 116 -16 128 -27 24 -22 22 -76 -5 -102 -20 -19 -34 -20 -223 -20 -167 0 -204 3 -223 16 -13 8 -56 83 -98 165 -67 135 -95 170 -94 121 1 -33 144 -296 173 -317 26 -18 46 -20 217 -23 220 -4 262 4 290 51 24 38 25 72 5 110 -16 32 -14 40 36 114 16 23 29 44 29 47 0 3 -21 16 -47 27 -27 12 -77 35 -113 52 -165 75 -223 98 -229 90 -3 -6 -22 -34 -40 -63 -34 -51 -35 -52 -45 -29 -36 92 -84 178 -118 215 -63 69 -157 90 -258 59z m605 -273 c61 -27 129 -57 153 -67 23 -10 42 -21 42 -24 0 -3 -16 -27 -34 -52 l-34 -45 -73 8 c-41 4 -105 11 -144 15 l-70 8 -21 44 c-23 49 -22 50 26 123 14 21 30 38 35 38 6 0 60 -22 120 -48z"/>
  </g>
</svg>