<svg height="512" viewBox="0 0 64 64" width="512" xmlns="http://www.w3.org/2000/svg"><g id="Bill-7" data-name="Bill"><path d="m53 3v58l-3-4-3 4-3-4-3 4-3-4-3 4-3-4-3 4-3-4-3 4-3-4-3 4-3-4-3 4v-58l3 4 3-4 3 4 3-4 3 4 3-4 3 4 3-4 3 4 3-4 3 4 3-4 3 4z" fill="#e6e7e8"/><path d="m53 15.01v45.99l-3-4-3 4-3-4-3 4-3-4-3 4-3-4-3 4-3-4-3 4-3-4-3 4-3-4-3 4v-3.93a111.132 111.132 0 0 0 42-42.06z" fill="#d8d7da"/><g fill="#acabb1"><path d="m28 18h4v2h-4z"/><path d="m34 18h10v2h-10z"/><path d="m28 22h16v2h-16z"/></g><path d="m16 30h26v2h-26z" fill="#c6c5ca"/><path d="m44 30h4v2h-4z" fill="#acabb1"/><path d="m16 34h26v2h-26z" fill="#c6c5ca"/><path d="m44 34h4v2h-4z" fill="#acabb1"/><path d="m16 38h26v2h-26z" fill="#c6c5ca"/><path d="m44 38h4v2h-4z" fill="#acabb1"/><path d="m16 42h26v2h-26z" fill="#c6c5ca"/><path d="m44 42h4v2h-4z" fill="#acabb1"/><path d="m16 46h26v2h-26z" fill="#c6c5ca"/><path d="m44 46h4v2h-4z" fill="#acabb1"/><path d="m16 50h26v2h-26z" fill="#c6c5ca"/><path d="m44 50h4v2h-4z" fill="#acabb1"/><path d="m21 18h-2a1 1 0 0 1 0-2h2a1 1 0 0 1 1 1h2a3 3 0 0 0 -3-3v-2h-2v2a3 3 0 0 0 0 6h2a1 1 0 0 1 0 2h-2a1 1 0 0 1 -1-1h-2a3 3 0 0 0 3 3v2h2v-2a3 3 0 0 0 0-6z" fill="#ff5023"/></g></svg>